<svg id="Layer_2" data-name="Layer 2" xmlns="http://www.w3.org/2000/svg" viewBox="0 0 244.31 244.19"><defs><style>.cls-1{fill:#fff;}</style></defs><title>burgerOpenWhite</title><path class="cls-1" d="M27.54,215.4V269A29.75,29.75,0,0,0,57.29,298.7h54.09a29.75,29.75,0,0,0,29.74-29l1.29-53.55a29.76,29.76,0,0,0-29.75-30.47H57.29A29.75,29.75,0,0,0,27.54,215.4Z" transform="translate(-27.54 -184.41)"/><path class="cls-1" d="M27.54,345.3v53.55a29.75,29.75,0,0,0,29.75,29.76h54.09a29.76,29.76,0,0,0,29.74-29.05L142.41,346a29.76,29.76,0,0,0-29.75-30.46H57.29A29.75,29.75,0,0,0,27.54,345.3Z" transform="translate(-27.54 -184.41)"/><path class="cls-1" d="M157,345.3v53.55a29.75,29.75,0,0,0,29.76,29.76h54.09a29.76,29.76,0,0,0,29.74-29.05L271.83,346a29.75,29.75,0,0,0-29.74-30.46H186.72A29.75,29.75,0,0,0,157,345.3Z" transform="translate(-27.54 -184.41)"/><path class="cls-1" d="M187.49,299.29h53.56a29.75,29.75,0,0,0,29.75-29.75V215.45a29.76,29.76,0,0,0-29-29.75l-53.55-1.28a29.76,29.76,0,0,0-30.47,29.75v55.37A29.75,29.75,0,0,0,187.49,299.29Z" transform="translate(-27.54 -184.41)"/></svg>