<svg id="Layer_1" data-name="Layer 1" xmlns="http://www.w3.org/2000/svg" viewBox="0 0 254.23 254.7"><defs><style>.cls-1{fill:#fff;}</style></defs><title>burgerCloseWhite</title><path class="cls-1" d="M17,193.79v53.55A29.75,29.75,0,0,0,46.75,277.1h54.09a29.76,29.76,0,0,0,29.75-29l1.28-53.56A29.75,29.75,0,0,0,102.13,164H46.75A29.75,29.75,0,0,0,17,193.79Z" transform="translate(-17 -152.3)"/><path class="cls-1" d="M17,323.69v53.56A29.75,29.75,0,0,0,46.75,407h54.09a29.76,29.76,0,0,0,29.75-29l1.28-53.55a29.75,29.75,0,0,0-29.74-30.47H46.75A29.75,29.75,0,0,0,17,323.69Z" transform="translate(-17 -152.3)"/><path class="cls-1" d="M146.43,323.69v53.56A29.75,29.75,0,0,0,176.18,407h54.09A29.76,29.76,0,0,0,260,378l1.28-53.55a29.76,29.76,0,0,0-29.75-30.47H176.18A29.75,29.75,0,0,0,146.43,323.69Z" transform="translate(-17 -152.3)"/><path class="cls-1" d="M144.32,242.25l37.87,37.87a29.74,29.74,0,0,0,42.07,0l38.25-38.25a29.77,29.77,0,0,0,.5-41.57l-37-38.77a29.75,29.75,0,0,0-42.58-.51l-39.15,39.15A29.76,29.76,0,0,0,144.32,242.25Z" transform="translate(-17 -152.3)"/></svg>