<svg id="Layer_3" data-name="Layer 3" xmlns="http://www.w3.org/2000/svg" viewBox="0 0 247.69 284"><defs><style>.cls-1{fill:#eb6fbd;stroke:#eb6fbd;}.cls-1,.cls-2,.cls-3{stroke-miterlimit:10;}.cls-1,.cls-2{stroke-width:0.79px;}.cls-2,.cls-3{fill:#fff;}.cls-2,.cls-3,.cls-4,.cls-8,.cls-9{stroke:#fff;}.cls-3{stroke-width:0.73px;}.cls-4,.cls-6,.cls-7,.cls-8,.cls-9{fill:none;}.cls-4,.cls-5,.cls-6,.cls-7,.cls-8{stroke-linecap:round;}.cls-4,.cls-5,.cls-6,.cls-7,.cls-8,.cls-9{stroke-linejoin:round;}.cls-4,.cls-5,.cls-6{stroke-width:2px;}.cls-5{fill:#262626;stroke:#262626;}.cls-6,.cls-7{stroke:#f9e547;}.cls-7,.cls-8{stroke-width:1.78px;}.cls-9{stroke-width:4px;}</style></defs><title>bus</title><path class="cls-1" d="M642.23,348.66c.13,2.37.88,4.63,3.25,4.63l26.37-.57c.15-21.53,24.24-19.39,24.85-.86H827.84c2.23-21.14,24.26-15.28,25.85,0h22.65a4.47,4.47,0,0,0,4.47-4.33c4.13-29.67,6.83-127.13,6.28-211.46.26-28.62-19.53-51.52-41.26-51-48.62-2.87-99-2.69-150.87,0-13.83-1.63-50.9,9.32-52.57,35.2-4.6,36.26-.92,109.1,3.35,179.71a4.51,4.51,0,0,1-1.15,3.07l-2.28,2.53a4.5,4.5,0,0,0-1.11,2.26C639.94,314.78,641.39,333.26,642.23,348.66Z" transform="translate(-639.87 -82.54)"/><path class="cls-2" d="M672.85,352.62c1,21.77,26,13.88,24,0C696.51,336.37,672.85,334.38,672.85,352.62Z" transform="translate(-639.87 -82.54)"/><path class="cls-3" d="M829.93,352.64c.93,20.19,24.09,12.87,22.3,0C851.87,337.57,829.93,335.72,829.93,352.64Z" transform="translate(-639.87 -82.54)"/><rect class="cls-3" x="2.48" y="144.46" width="244.03" height="6.84"/><path class="cls-3" d="M651.3,170.07l43.09.94a4.72,4.72,0,0,0,4.83-4.86l-1.62-57.56a4.72,4.72,0,0,0-5-4.59c-26.79,1.37-52-5.33-46,61.78A4.72,4.72,0,0,0,651.3,170.07Z" transform="translate(-639.87 -82.54)"/><path class="cls-3" d="M708.39,103.84l42.3-1.74a3.74,3.74,0,0,1,3.9,3.64l1.51,61.44a3.74,3.74,0,0,1-3.74,3.83h-42a3.74,3.74,0,0,1-3.74-3.62L704.8,107.7A3.75,3.75,0,0,1,708.39,103.84Z" transform="translate(-639.87 -82.54)"/><path class="cls-3" d="M767.34,101.94h36.28a4.75,4.75,0,0,1,4.75,4.65l.9,40.2.41,18.33a4.76,4.76,0,0,1-4.76,4.86H768.81a4.75,4.75,0,0,1-4.75-4.64l-1.48-58.53A4.76,4.76,0,0,1,767.34,101.94Z" transform="translate(-639.87 -82.54)"/><path class="cls-3" d="M817.12,167,816,107.16a4.05,4.05,0,0,1,3.84-4.14c28.35-1.54,64.38-6.42,56.75,64.36a4.07,4.07,0,0,1-4,3.63H821.18A4.06,4.06,0,0,1,817.12,167Z" transform="translate(-639.87 -82.54)"/><path class="cls-3" d="M648.05,239c51.18-4,41.34,14.82,40.48,54.16A83.6,83.6,0,0,0,650,299.41Z" transform="translate(-639.87 -82.54)"/><path class="cls-3" d="M710.12,242.26l36.17-.88a5.44,5.44,0,0,1,5.57,5.11l2.28,36.87a5.45,5.45,0,0,1-5.44,5.78H710.25a5.45,5.45,0,0,1-5.45-5.45v-36A5.45,5.45,0,0,1,710.12,242.26Z" transform="translate(-639.87 -82.54)"/><path class="cls-3" d="M764.06,241.25h41.67a4.06,4.06,0,0,1,4.06,3.94L811,286.1a4.06,4.06,0,0,1-4.06,4.18H764.06a4.06,4.06,0,0,1-4.06-4.06V245.31A4.06,4.06,0,0,1,764.06,241.25Z" transform="translate(-639.87 -82.54)"/><rect class="cls-3" x="177.8" y="158.71" width="55.88" height="47.89" rx="5.88"/><path class="cls-4" d="M652.71,219.29l.26-13.1a8.63,8.63,0,0,1,4.92-.85,4.14,4.14,0,0,1,2.2.68c1.5,1.11,1.35,3.59.08,4.95A6.75,6.75,0,0,1,655,212.7c1.51.3,3.15-.52,4.59.05a4.22,4.22,0,0,1,2.22,3.11,4.32,4.32,0,0,1-.17,3.15,3.53,3.53,0,0,1-2.24,1.57,10.1,10.1,0,0,1-2.8.21C655.09,220.77,653.53,220.58,652.71,219.29Z" transform="translate(-639.87 -82.54)"/><path class="cls-4" d="M664.81,206.57a26,26,0,0,0,.24,6c.3,1.91.93,4,2.55,5a4.16,4.16,0,0,0,5.49-1.14,8,8,0,0,0,.89-4.51v-5.56" transform="translate(-639.87 -82.54)"/><path class="cls-4" d="M686.61,209.13c-.05-1.73-1.87-2.91-3.59-3.14a5.61,5.61,0,0,0-3.68.71,4,4,0,0,0-1.92,3.13,3.13,3.13,0,0,0,1.94,3c1.27.44,2.72-.09,4,.3a3.31,3.31,0,0,1,2,4.18,4.15,4.15,0,0,1-4.1,2.54,5.56,5.56,0,0,1-4.22-2.63" transform="translate(-639.87 -82.54)"/><rect class="cls-5" x="195.91" y="120.65" width="33.21" height="16.53"/><path class="cls-6" d="M840,206.81a2.57,2.57,0,0,1,2.34-.4,1.83,1.83,0,0,1,.95,1.64,3.77,3.77,0,0,1-.55,1.89,2.6,2.6,0,0,1-.73.91,1.1,1.1,0,0,1-1.1.15c.66.18,1.46-.19,2,.22a1.62,1.62,0,0,1,.52,1.1,5,5,0,0,1-.05,2.33,2.12,2.12,0,0,1-1.66,1.5,1.66,1.66,0,0,1-1.73-1.26" transform="translate(-639.87 -82.54)"/><path class="cls-7" d="M851.18,209.16a6.2,6.2,0,0,0-.06-1.49,1.81,1.81,0,0,0-.74-1.2,2,2,0,0,0-1.36-.17,1.49,1.49,0,0,0-.7.23,1.87,1.87,0,0,0-.54.94,19,19,0,0,0-.95,6.05,3.85,3.85,0,0,0,.13,1.08,3.66,3.66,0,0,0,.76,1.2,2.22,2.22,0,0,0,1,.83,1.61,1.61,0,0,0,1.53-.65,3.84,3.84,0,0,0,.92-2.13,1.22,1.22,0,0,0-.05-.63,1,1,0,0,0-.33-.41,2.6,2.6,0,0,0-2.9-.33" transform="translate(-639.87 -82.54)"/><path class="cls-8" d="M722.48,302.56a6,6,0,0,1,4.58,2.87,8.22,8.22,0,0,1,1,5.41,7,7,0,0,1-3,5.08,6.82,6.82,0,0,1-3.88.9C713.06,316.46,714.75,302.09,722.48,302.56Z" transform="translate(-639.87 -82.54)"/><path class="cls-9" d="M712.38,309.51,731.1,309" transform="translate(-639.87 -82.54)"/></svg>