<svg id="Layer_4" data-name="Layer 4" xmlns="http://www.w3.org/2000/svg" viewBox="0 0 223.83 92.8"><defs><style>.cls-1{fill:#fdf7cb;stroke:#fdf7cb;}.cls-1,.cls-2,.cls-3,.cls-4{stroke-linejoin:round;}.cls-1,.cls-2{stroke-width:2px;}.cls-2,.cls-4{fill:#fff;}.cls-2,.cls-3,.cls-4{stroke:#fff;}.cls-3{fill:none;}.cls-3,.cls-4{stroke-linecap:round;}</style></defs><title>car</title><path class="cls-1" d="M1018.09,306h105.48c4.37-27.08,24.52-21.57,33.35-4.84h24.23a10.21,10.21,0,0,0,1.37-9.93.91.91,0,0,0-1.74.14c-.45,2.26-1.16,3.49-2.19,3.52l-1.43-16.25-4.56-7.7-2.85-2.57c-.84-3.68-2.2-6.85-5.15-8.44a4.75,4.75,0,0,1-2.31-2.73c-4.87-15.71-13-28.36-34.16-29-30.49-.38-68.62-2-73,2l-9.09-1.48a2.64,2.64,0,0,0-3,2.7l.16,4.2c-4.24.47-11.3,14-17.67,24.23L979,262.35c-2.48,2-4.08,4-3.42,6a22.1,22.1,0,0,1-10,1.14c-3,4.23-3.07,8.41,0,12.55q4,8.5,3.42,14.54c-2,.89-3.64-.19-5-3.4a1.1,1.1,0,0,0-2,0,11.72,11.72,0,0,0-.41,6.28c3,6.12,7.91,6.39,13.68,4,2-2.23,2.51-4.43-.85-6.56C986,282.3,1005.54,275.27,1018.09,306Z" transform="translate(-960.41 -226.48)"/><path class="cls-2" d="M980.91,295.57a15.25,15.25,0,0,0,.81,10.34c7.25,17,26.93,11.63,27.81-4.41C1009.66,283.51,985.32,281.13,980.91,295.57Z" transform="translate(-960.41 -226.48)"/><path class="cls-2" d="M1125,297.47a15.13,15.13,0,0,0,.81,10.34c7.24,17,26.93,11.63,27.81-4.41C1153.72,285.41,1129.38,283,1125,297.47Z" transform="translate(-960.41 -226.48)"/><path class="cls-3" d="M965.44,269.57c54.46,0,106,1.9,138.58,7.17a4.25,4.25,0,0,0,3.94-2.15l1.32-2.31a5.39,5.39,0,0,1,4.68-2.71h57.12" transform="translate(-960.41 -226.48)"/><path class="cls-4" d="M1040.59,260.53l30,.78a3.44,3.44,0,0,0,3.52-3.44v-17a3.77,3.77,0,0,0-3.46-3.77c-19.26-1.51-30.73,4.65-33.19,19.69A3.22,3.22,0,0,0,1040.59,260.53Z" transform="translate(-960.41 -226.48)"/><path class="cls-4" d="M1086.74,236.88h22a5,5,0,0,1,5,5v14.55a5,5,0,0,1-4.89,5l-22,.45a5,5,0,0,1-5.09-5v-15A5,5,0,0,1,1086.74,236.88Z" transform="translate(-960.41 -226.48)"/><path class="cls-4" d="M1120.64,239.71l.73,18a2.69,2.69,0,0,0,2.68,2.57h23.39a2.68,2.68,0,0,0,2.63-3.16c-1.9-10.58-6.87-19.47-26.68-20.17A2.67,2.67,0,0,0,1120.64,239.71Z" transform="translate(-960.41 -226.48)"/></svg>