<svg id="Layer_1" data-name="Layer 1" xmlns="http://www.w3.org/2000/svg" viewBox="0 0 213.22 200.84"><defs><style>.cls-1,.cls-2,.cls-3{fill:none;stroke-miterlimit:10;}.cls-1{stroke:#f9e547;stroke-width:0.9px;}.cls-2{stroke:#eb6fbd;stroke-width:0.83px;}.cls-3{stroke:#262626;stroke-width:0.84px;}</style></defs><title>circles</title><path class="cls-1" d="M46.66,118.58C64.3,92,96.48,84.64,133.83,84.09a79.56,79.56,0,0,1,8.86.37c72.56,7.17,93.94,41.2,89.86,79-10.1,125.15-159,139.83-203,72.88a53.33,53.33,0,0,1-8.7-27.51C19.83,180.37,24.79,151.43,46.66,118.58Z" transform="translate(-20.25 -83.63)"/><path class="cls-2" d="M64.24,119.93c15.71-25.62,44-33,76.82-33.81a63.16,63.16,0,0,1,7.78.27c63.65,6.25,82.12,38.67,78.21,74.92-10,120.05-140.83,135.4-178.89,71.62a53.71,53.71,0,0,1-7.4-26.29C40.14,179.39,44.74,151.61,64.24,119.93Z" transform="translate(-20.25 -83.63)"/><path class="cls-3" d="M53.07,134.36c16.27-25.43,45.8-32.6,80-33.28a68.73,68.73,0,0,1,8.12.32c66.48,6.55,85.92,38.94,82,75C213.47,295.9,76.94,310.52,36.88,246.8A51.89,51.89,0,0,1,29,220.59C28.23,193.44,32.89,165.81,53.07,134.36Z" transform="translate(-20.25 -83.63)"/></svg>