<svg xmlns="http://www.w3.org/2000/svg" viewBox="0 0 252.08 178.06"><defs><style>.cls-1{fill:#faebef;}.cls-2,.cls-7,.cls-8{fill:#262626;}.cls-3{fill:#eb6fbd;}.cls-4,.cls-5{fill:#fcd9ac;}.cls-5{stroke:#fcd9ac;stroke-miterlimit:10;}.cls-6{fill:#f2c09e;}.cls-7{font-size:25px;font-family:Montserrat-Medium, Montserrat;font-weight:500;}.cls-8{font-size:10px;font-family:Montserrat-SemiBold, Montserrat;font-weight:600;}.cls-9{letter-spacing:0em;}.cls-10{letter-spacing:-0.01em;}.cls-11{letter-spacing:-0.01em;}</style></defs><title>error_404</title><g id="Layer_2" data-name="Layer 2"><path class="cls-1" d="M21.92,182.2q2.2-12.55,4.53-25.08c1.67-9,3.58-18.46,9.37-25.59,8.59-10.58,22.7-13,35-16.6,15-4.46,30.23-5.62,45.65-7.85,14.32-2.07,28.3-9,42-14.15,25.6-9.66,57.49,3.7,73.85,24.32a45.19,45.19,0,0,1,7.1,12c4.81,12.85,3.13,27.27,7.37,40.44,4.92,15.26,13.19,28.95,18.44,44,1.49,4.28,3.12,7.46,1.91,11.89A23.36,23.36,0,0,1,261,235.93c-3.36,3.36-8.11,7.32-12.65,8.8-4.83,1.58-10.77,1.36-15.8,2-20.72,2.62-41.7,2-62.52,1.34l-88.64-2.78L37,243.9c-7.18-.22-16.32,2.09-19.2-7a20.64,20.64,0,0,1-.68-3.67c-.53-4.24-1.79-9-1.66-13.26.12-3.94,1.39-8.22,2-12.15Q19.67,195,21.92,182.2Z" transform="translate(-15.48 -70.58)"/></g><g id="Layer_5" data-name="Layer 5"><path class="cls-2" d="M173.42,160.81a8.54,8.54,0,0,0,2.67,0c1.26-.24,2.43-.85,3.69-1.15a8,8,0,0,1,9,4.65c.7,1.76.74,3.7,1.18,5.54,1.28,5.3,5.82,9.3,7.3,14.54.58,2,.68,4.21,1.49,6.17s2.3,3.55,3.36,5.38c2.72,4.66,2.57,10.38,2.35,15.77a36,36,0,0,0-6.65-8.63,15.38,15.38,0,0,0-4.08-3c-2.26-1-5.61,0-8-.42-1.9-.34-2.6-2.08-4.52-2.45a15.55,15.55,0,0,0-11.93,2.58,25.5,25.5,0,0,1-2.7,1.93c-1.25.68-2.48.5-3.76.89s-4.12,3.54-4.08,3.76c.11.55-.46,1-1,1.18a11.26,11.26,0,0,1-5.07.22,9.91,9.91,0,0,1-4.35-2.24,13.17,13.17,0,0,1-4.23-4.37c-1.47-3-.39-6.62-.56-10-.11-2.37-.86-4.66-1.15-7s0-5,1.53-6.73c.66-.75,1.52-1.31,2.18-2.06,1.2-1.36,1.66-3.26,2.9-4.58,2.34-2.52,6.65-2.2,9.11-4.61,1.71-1.67,2.2-4.37,4.1-5.82s4.56-1.2,6.86-.61A41.28,41.28,0,0,0,173.42,160.81Z" transform="translate(-15.48 -70.58)"/><path class="cls-3" d="M169.69,199.66c-4.46,1.85-9,3.74-12.74,6.79a6.05,6.05,0,0,0-1.62,1.8,6.78,6.78,0,0,0-.57,2.82c-.11,1.87-.55,3.64-.72,5.5s-.44,3.23.85,4.68a13.48,13.48,0,0,0,2.26,1.86c3.56,2.6,3.82,6.1,5,9.94q1.6,5.12,3.48,10.14c.49,1.3.94,3.87,1.94,4.84,2.29.58,20.79.61,22.5.26.8-3.93,1.43-9.37,2.78-13.18a41.61,41.61,0,0,1,2.4-4.65,30.84,30.84,0,0,1,2.37-4.87c1-1.38,2.61-1.73,3.94-2.77a6.77,6.77,0,0,0,2.33-3.11c.59-1.77.22-3.65.28-5.48a9.64,9.64,0,0,0-1.26-4.84,22.83,22.83,0,0,0-4.09-5.26A17.65,17.65,0,0,0,195,201a11.34,11.34,0,0,0-9.06-.82q3.71-.07,7.41,0" transform="translate(-15.48 -70.58)"/><path class="cls-4" d="M152.64,219.66a29.85,29.85,0,0,1,6.42,2.67c1.61,1,2.91,2.51,2.33,4s-3.32,2.42-5.67,2.23a18.39,18.39,0,0,1-6.38-2.05c-4.81-2.28-12.5-5.72-15.14-9.32-.64-.86-2.36-1.45-3.56-2a10.71,10.71,0,0,0-2.71-.26c-6.58-.62-4.43-.26-11.06-.56-.46,0,1.8-.41,1.95-.71,1.75-.4,1.59-.7,3.45-.76a99.06,99.06,0,0,1,11.3.07,15.29,15.29,0,0,1,5,.82,14.86,14.86,0,0,1,2.74,1.93A13.49,13.49,0,0,0,144.5,217Z" transform="translate(-15.48 -70.58)"/><path class="cls-4" d="M203.19,219.66a28.88,28.88,0,0,0-6.28,2.67c-1.57,1-2.84,2.51-2.28,4a2.44,2.44,0,0,0,.47.74,2.09,2.09,0,0,0,.22.2,6.89,6.89,0,0,0,4.86,1.29,17.79,17.79,0,0,0,6.24-2.05c4.69-2.28,12.22-5.72,14.8-9.32.62-.86,2.31-1.45,3.48-2a10.28,10.28,0,0,1,2.65-.26c6.43-.62,4.33-.26,10.81-.56.45,0-1.76-.41-1.9-.71-1.72-.4-1.56-.7-3.37-.76a94.73,94.73,0,0,0-11,.07,14.63,14.63,0,0,0-4.84.82,14.36,14.36,0,0,0-2.68,1.93,13.1,13.1,0,0,1-3.17,1.25Z" transform="translate(-15.48 -70.58)"/><path class="cls-5" d="M166.85,186.9c.84,2.07,1.81,4.3,3.76,5.39,1.66.93,3.69.83,5.59.71a6.87,6.87,0,0,0,1.75-.27,4.66,4.66,0,0,0,1.94-1.37c2-2.22,2.22-5.4,2.4-8.35l.24-4a13.67,13.67,0,0,0,0-3,14.11,14.11,0,0,0-.55-2.1l-1-3.24a3,3,0,0,0-.77-1.42c-.77-.66-1.94-.37-2.94-.17s-2.32.06-2.63-.92c-.09-.29-.2-.72-.5-.67-.15,0-.18.24-.31.32-.61,1.16-1.22,3.23-2.52,5.5-1.9,3.3-5.84,4.94-7.14,6.32-.6.11,1,2.92,1.26,3.52Z" transform="translate(-15.48 -70.58)"/><path class="cls-4" d="M171.35,196.38a3,3,0,0,1-.28,1.89c-.27.4-.73.65-1,1a2.82,2.82,0,0,0-.32,1.7c.11,2.34.83,4.9,2.85,6.08a8,8,0,0,0,3.65.85,11,11,0,0,0,4-.27c2.22-.7,3.84-2.62,5.14-4.55a3.84,3.84,0,0,0,.91-2.7,1.14,1.14,0,0,0-.26-.58,1.83,1.83,0,0,0-.86-.35,6.26,6.26,0,0,1-3.81-3.29,18.32,18.32,0,0,1-1.52-4.93,20.12,20.12,0,0,0-4.78-.05c-1.11.17-3.06.61-3.68,1.68C170.84,193.81,171.28,195.42,171.35,196.38Z" transform="translate(-15.48 -70.58)"/><path class="cls-6" d="M184.29,176.65a1.46,1.46,0,0,1,1.08.9c.23.64,0,1.39.31,2a2.29,2.29,0,0,1,.33.64,1.25,1.25,0,0,1-.31.88l-1.52,2.19a3.24,3.24,0,0,1-1.51,1.4,31.35,31.35,0,0,1,.26-5C183.33,178.72,182.59,176.34,184.29,176.65Z" transform="translate(-15.48 -70.58)"/><path class="cls-6" d="M162.7,181.48a.83.83,0,0,0-.17.6.86.86,0,0,0,.32.45c1.13,1.06,1.93,2.52,3.1,3.3a23.55,23.55,0,0,0-1-2.8,18.59,18.59,0,0,1-1.13-2.74A3,3,0,0,0,162.7,181.48Z" transform="translate(-15.48 -70.58)"/><path class="cls-6" d="M180.11,191.7c-1.1,3.52-6.46,4.13-8.87,1.46C172.45,194.36,178.67,194.37,180.11,191.7Z" transform="translate(-15.48 -70.58)"/><path class="cls-6" d="M134.2,217.15c10.62,5.31,20.08,11.41,27.05,9.54-1,1.6-3,2.14-5.49,2.15C149.63,228.12,138.5,221.94,134.2,217.15Z" transform="translate(-15.48 -70.58)"/><path class="cls-6" d="M195.32,227.23c6.89,5,22.47-5.49,26.18-10.38C216,222.29,206,225,195.32,227.23Z" transform="translate(-15.48 -70.58)"/></g><g id="Layer_6" data-name="Layer 6"><path class="cls-2" d="M94.42,151.3l6.61-.62a7.31,7.31,0,0,1,1.14,3.37,3.14,3.14,0,0,1-.45,2.33,3.76,3.76,0,0,1-2.54.9l-26.64,2.48a9.76,9.76,0,0,1-1.16-3.59,2.32,2.32,0,0,1,2.43-2.95l7-.65q-.3-5.64-.61-9l-28.63,2.67a8.66,8.66,0,0,1-1.74-4.48,9.48,9.48,0,0,1,.63-4.25q.82-2.22,11.4-21.78t11.41-20.3a6.57,6.57,0,0,1,3.49-1l6.7-.62a7,7,0,0,1,4.15.57q1.38.84,1.75,4.78l3.3,35.41,5.93-.56a14.13,14.13,0,0,1,1.19,4.39A4.29,4.29,0,0,1,99.4,141,3,3,0,0,1,97,142l-3.67.35C93.84,146.56,94.19,149.54,94.42,151.3Zm-15-15.47q-2.62-28.07-3-28T63.77,137.29Z" transform="translate(-15.48 -70.58)"/><path class="cls-2" d="M204.46,128.11l6.62-.62a7.34,7.34,0,0,1,1.13,3.36,3.22,3.22,0,0,1-.44,2.34,3.84,3.84,0,0,1-2.55.89l-26.63,2.49a9.56,9.56,0,0,1-1.16-3.6,2.3,2.3,0,0,1,2.42-2.94l7-.65c-.2-3.76-.41-6.76-.61-9l-28.63,2.67a8.69,8.69,0,0,1-1.75-4.48,9.64,9.64,0,0,1,.64-4.25q.81-2.2,11.4-21.78t11.4-20.3a6.63,6.63,0,0,1,3.5-1l6.7-.63a6.87,6.87,0,0,1,4.14.58c.92.55,1.51,2.15,1.75,4.78l3.3,35.4,5.94-.55a14.34,14.34,0,0,1,1.19,4.39,4.17,4.17,0,0,1-.36,2.58,3,3,0,0,1-2.37,1l-3.67.34C203.88,123.36,204.24,126.35,204.46,128.11Zm-15-15.48q-2.61-28.06-3-28t-12.67,29.48Z" transform="translate(-15.48 -70.58)"/></g><g id="Layer_7" data-name="Layer 7"><path class="cls-2" d="M131.62,143.11q-10.22,1.54-16.66-2.81t-8.68-19.13q-2.53-16.76,2.93-25.61t18.27-10.8q10.21-1.53,16.66,2.82T152.87,107q2.48,16.45-3,25.32T131.62,143.11ZM126,93.05a7.73,7.73,0,0,0-6.19,4.88q-1.87,4.23-.17,15.6,2.13,14.07,5.39,18.05a8.4,8.4,0,0,0,8.19,3.24,7.59,7.59,0,0,0,6.34-4.9q1.69-4.2,0-15.33-2.1-13.91-5.45-18.08T126,93.05Z" transform="translate(-15.48 -70.58)"/></g><g id="Layer_8" data-name="Layer 8"><text class="cls-7" transform="translate(0.25 115.49)">Oops...</text><text class="cls-8" transform="translate(10.22 131.73)">t<tspan class="cls-9" x="4.24" y="0">h</tspan><tspan x="11.14" y="0">e </tspan><tspan class="cls-10" x="20.12" y="0">p</tspan><tspan class="cls-9" x="26.91" y="0">a</tspan><tspan x="33.03" y="0">ge </tspan><tspan class="cls-9" x="48.95" y="0">n</tspan><tspan x="55.85" y="0">ot </tspan><tspan class="cls-11" x="69.3" y="0">f</tspan><tspan x="72.91" y="0">ou</tspan><tspan class="cls-9" x="86.17" y="0">n</tspan><tspan x="93.07" y="0">d</tspan></text><path class="cls-2" d="M203.32,139a2.49,2.49,0,0,1,3.19,2.55,1.55,1.55,0,0,1-.18,1.08,1.82,1.82,0,0,1-1.24.45l-2.71.29a2.52,2.52,0,0,0,.59,1.45,1.71,1.71,0,0,0,1.49.39,4.36,4.36,0,0,0,2-.8,1.1,1.1,0,0,1,.46.76c0,.39-.21.69-.77.9a7.83,7.83,0,0,1-2,.45,4.27,4.27,0,0,1-3-.5,3.39,3.39,0,0,1-1.18-2.55,4.25,4.25,0,0,1,.69-3.1A3.56,3.56,0,0,1,203.32,139Zm-.16,1.29a.92.92,0,0,0-.77.52,3,3,0,0,0-.13,1.56l.38,0q.81-.09,1.23-.18c.28-.06.45-.14.49-.22a.7.7,0,0,0,0-.38,1.64,1.64,0,0,0-.39-1A.94.94,0,0,0,203.16,140.29Z" transform="translate(-15.48 -70.58)"/><path class="cls-2" d="M207.37,139.14a.33.33,0,0,1,.16-.36,17.08,17.08,0,0,1,2.39-.4,4.12,4.12,0,0,1,.09.84,6.78,6.78,0,0,1,1.58-.91,5.76,5.76,0,0,1,1.29-.32.73.73,0,0,1,.36,0,.39.39,0,0,1,.12.28,3.07,3.07,0,0,1,0,.85,1,1,0,0,1-.24.58,1.35,1.35,0,0,1-.55.25,1.25,1.25,0,0,1-.44.07,2.49,2.49,0,0,1-.47-.44,1,1,0,0,0-.78.48,4.18,4.18,0,0,0-.07,2q.15,1.48.3,2.55l1.15-.12a1.25,1.25,0,0,1,.19.52.54.54,0,0,1-.07.37.65.65,0,0,1-.4.15l-3.72.39a1.43,1.43,0,0,1-.19-.56.41.41,0,0,1,.07-.33.44.44,0,0,1,.32-.14l.53-.05c-.05-.72-.13-1.55-.23-2.49a8.37,8.37,0,0,0-.45-2.39.71.71,0,0,0-.71-.3A1.45,1.45,0,0,1,207.37,139.14Z" transform="translate(-15.48 -70.58)"/><path class="cls-2" d="M214.15,138.42a.35.35,0,0,1,.16-.37,19.06,19.06,0,0,1,2.39-.4,4.23,4.23,0,0,1,.09.85,6.44,6.44,0,0,1,1.58-.91,5.56,5.56,0,0,1,1.29-.33.6.6,0,0,1,.36,0c.06,0,.1.13.12.28a3,3,0,0,1,0,.84,1,1,0,0,1-.24.59,1.23,1.23,0,0,1-.55.24,1.14,1.14,0,0,1-.44.08,2.49,2.49,0,0,1-.47-.44.94.94,0,0,0-.78.47,4.08,4.08,0,0,0-.07,2q.15,1.49.3,2.55l1.15-.13a1.21,1.21,0,0,1,.19.53.56.56,0,0,1-.07.37.66.66,0,0,1-.4.14l-3.72.4a1.43,1.43,0,0,1-.19-.56.45.45,0,0,1,.07-.34.5.5,0,0,1,.32-.13l.53-.06c-.05-.71-.13-1.54-.23-2.48a8.37,8.37,0,0,0-.45-2.39.68.68,0,0,0-.71-.3A1.45,1.45,0,0,1,214.15,138.42Z" transform="translate(-15.48 -70.58)"/><path class="cls-2" d="M225,144.34a3.34,3.34,0,0,1-2.55-.59,3.47,3.47,0,0,1-1.09-2.38,4.55,4.55,0,0,1,.67-3.24,3.63,3.63,0,0,1,2.7-1.41,3.25,3.25,0,0,1,2.54.59,3.41,3.41,0,0,1,1.09,2.38,4.61,4.61,0,0,1-.66,3.24A3.63,3.63,0,0,1,225,144.34Zm.21-1.3a1,1,0,0,0,.83-.56,3.89,3.89,0,0,0,.09-1.86,5,5,0,0,0-.54-2.08,1.05,1.05,0,0,0-1.07-.52,1,1,0,0,0-.83.56,3.84,3.84,0,0,0-.09,1.85,5.12,5.12,0,0,0,.54,2.08A1.06,1.06,0,0,0,225.17,143Z" transform="translate(-15.48 -70.58)"/><path class="cls-2" d="M229,136.83a.35.35,0,0,1,.16-.36,17.08,17.08,0,0,1,2.39-.4,4.12,4.12,0,0,1,.09.84,6.41,6.41,0,0,1,1.59-.9,5.32,5.32,0,0,1,1.29-.33.7.7,0,0,1,.35,0,.39.39,0,0,1,.12.28,3.07,3.07,0,0,1,0,.85,1.05,1.05,0,0,1-.24.59,1.51,1.51,0,0,1-.55.24,1.25,1.25,0,0,1-.44.07,2.63,2.63,0,0,1-.46-.44,1,1,0,0,0-.79.48,4.21,4.21,0,0,0-.07,2c.1,1,.21,1.83.31,2.54l1.14-.12a1.12,1.12,0,0,1,.19.52.49.49,0,0,1-.07.37.58.58,0,0,1-.4.15l-3.71.39a1.46,1.46,0,0,1-.2-.56.38.38,0,0,1,.39-.47l.53,0c-.05-.72-.13-1.55-.23-2.49a7.67,7.67,0,0,0-.45-2.39.7.7,0,0,0-.71-.3A1.35,1.35,0,0,1,229,136.83Z" transform="translate(-15.48 -70.58)"/></g></svg>