<svg xmlns="http://www.w3.org/2000/svg" viewBox="0 0 258.41 171.12"><defs><style>.cls-1{fill:#fdf7cb;}.cls-2,.cls-3{fill:none;stroke:#262626;stroke-width:0.75px;}.cls-2{stroke-miterlimit:10;}.cls-3{stroke-linecap:round;stroke-linejoin:round;}.cls-10,.cls-17,.cls-4,.cls-5,.cls-6,.cls-7,.cls-8,.cls-9{fill:#262626;}.cls-5{font-size:60px;}.cls-5,.cls-6,.cls-7,.cls-8,.cls-9{font-family:Kefa-Bold, Kefa;font-weight:700;}.cls-6{font-size:50px;}.cls-7{font-size:40px;}.cls-8{font-size:35px;}.cls-9{font-size:30px;}.cls-10{font-size:15px;}.cls-10,.cls-17{font-family:Montserrat-Medium, Montserrat;font-weight:500;}.cls-11{letter-spacing:-0.02em;}.cls-12{letter-spacing:-0.01em;}.cls-13{letter-spacing:0.02em;}.cls-14{letter-spacing:-0.02em;}.cls-15{letter-spacing:-0.01em;}.cls-16{letter-spacing:-0.01em;}.cls-17{font-size:10px;}.cls-18{letter-spacing:-0.01em;}.cls-19{letter-spacing:0em;}.cls-20{letter-spacing:0em;}.cls-21{letter-spacing:-0.01em;}.cls-22{letter-spacing:-0.01em;}.cls-23{letter-spacing:-0.01em;}.cls-24{letter-spacing:-0.01em;}</style></defs><title>error_500</title><g id="Layer_9" data-name="Layer 9"><path class="cls-1" d="M341.91,227.61q.4-.27.84-.51a40.14,40.14,0,0,1,9.3-4.2,16.63,16.63,0,0,1,2.19-.53c3.09-.43,7.27.66,10.29,1.47a20.4,20.4,0,0,1,8.74,4.87,21.44,21.44,0,0,1,6.08,19.1,43,43,0,0,1-2.87,8.57c-1,2.4-2.11,4.95-4.28,6.38a12.56,12.56,0,0,1-5.68,1.59c-7.2.76-14.79.84-21.31-2.32-4.26-2.07-7.46-4.72-9.23-9.1-2.17-5.34-4.33-13-1.09-18.2A22.93,22.93,0,0,1,341.91,227.61Z" transform="translate(-325.47 -93.67)"/></g><g id="Layer_10" data-name="Layer 10"><path class="cls-2" d="M372.14,201.6v0a2.21,2.21,0,0,0-2-1.87,26.3,26.3,0,0,0-4.69-.42c-1.65-.07-3.29-.29-4.94-.32a3.05,3.05,0,0,0-1.47.22c-1,.52-1.2,1.89-1.24,3L357.7,206a2.44,2.44,0,0,0,.42,1.78,2.16,2.16,0,0,0,1.11.52c2.53.57,5.13.22,7.69.1a29.54,29.54,0,0,1,3.88.13c1.41.11,1.33-.75,1.33-2C372.13,204.82,372.67,203.27,372.14,201.6Z" transform="translate(-325.47 -93.67)"/><path class="cls-2" d="M372.18,205.83a31.68,31.68,0,0,0-6.45-.6l-7.89-.19" transform="translate(-325.47 -93.67)"/><path class="cls-2" d="M372.36,203.67a10.82,10.82,0,0,0-5.06-1.79,20.27,20.27,0,0,0-2.7,0l-6.73.24" transform="translate(-325.47 -93.67)"/><path class="cls-2" d="M380.47,245.75a9.28,9.28,0,0,0,1.55-5.21,4.35,4.35,0,0,0-.83-2.73.79.79,0,0,0-.45-.32c-.47-.08-.74.52-.82,1l-1.41,7.5C378.06,248.36,379.77,246.79,380.47,245.75Z" transform="translate(-325.47 -93.67)"/><path class="cls-2" d="M373.87,251.07a1.19,1.19,0,0,1,.21-.52,1.7,1.7,0,0,1,1.31-.57c.88-.06,2.11,0,2.38,1a1.65,1.65,0,0,1-.64,1.78C375.81,253.7,373.49,253,373.87,251.07Z" transform="translate(-325.47 -93.67)"/><path class="cls-2" d="M365.54,208.33a57.85,57.85,0,0,0,1,18.74,5.53,5.53,0,0,0,.48,1.49,2.9,2.9,0,0,0,1,1,1.61,1.61,0,0,0,1.09.3,1.48,1.48,0,0,0,.82-2.14,5.07,5.07,0,0,0-4.61-1.87c-1.19.4-1.73,1.74-2.09,2.94a3.82,3.82,0,0,0-.22,1.67,1.34,1.34,0,0,0,1.06,1.16,1.37,1.37,0,0,0,1.34-1.31,3.74,3.74,0,0,0-.58-2,2.15,2.15,0,0,0-1.67-1.39,10.6,10.6,0,0,0-2.89-.53,5.76,5.76,0,0,0-4.9,2.8.8.8,0,0,0-.12.75.82.82,0,0,0,.37.29l1,.53c.41.21.94.41,1.3.12a1.21,1.21,0,0,0,.34-.58l1.69-4.84a31.25,31.25,0,0,0,1-3.12,31.92,31.92,0,0,0,.59-4l1-9.76" transform="translate(-325.47 -93.67)"/><path class="cls-2" d="M370.44,208.48a14.7,14.7,0,0,0,.09,5,16,16,0,0,0,1.16,2.86,17.3,17.3,0,0,0,1.27,2.31,16.77,16.77,0,0,0,1.18,1.49l3.23,3.78c1.15,1.36,2.56,2.57,3.58,4a20.49,20.49,0,0,1,1.27,2.17,17.72,17.72,0,0,1,1.85,4.24c1.1,4.57,1.08,10.33-1.52,14.42a28.63,28.63,0,0,1-4.31,5.26,23.15,23.15,0,0,1-7.26,4.3,18.56,18.56,0,0,1-6.74,1.41c-2.54.05-5,.26-7.52-.43-5.79-1.61-11.31-5.13-14-10.49a16.74,16.74,0,0,1-1-2.56,24.78,24.78,0,0,1,.17-13.79,25.49,25.49,0,0,1,8-12.38c1.85-1.64,4-2.94,5.8-4.59a10.89,10.89,0,0,0,3.48-7.31" transform="translate(-325.47 -93.67)"/><path class="cls-2" d="M369.16,199.6a1.5,1.5,0,0,0-.75-2c-1.94-1-4.26-.75-6.42-.47-1.44.18-2,.27-2.09,1.82" transform="translate(-325.47 -93.67)"/><path class="cls-2" d="M368.9,197.82a2.27,2.27,0,0,0-.82-2.26,4.52,4.52,0,0,0-2.46-.63l-1.51-.09a5.08,5.08,0,0,0-1.74.1,2.59,2.59,0,0,0-1.8,2.43" transform="translate(-325.47 -93.67)"/><path class="cls-3" d="M364.71,194.82a11.38,11.38,0,0,0,7-6.42,23.2,23.2,0,0,0,1.71-9.56,50.09,50.09,0,0,0-.48-6.92,8.67,8.67,0,0,0-1-3.43,3.34,3.34,0,0,0-3-1.7c-2.22.21-3.07,3-3.17,5.22s.09,4.72,1.74,6.21a5.36,5.36,0,0,0,6.16.34,10.11,10.11,0,0,0,4-5.12,18.7,18.7,0,0,0,1.29-8.44c-.24-3-1.21-5.93-1.81-8.91s-.8-6.17.46-8.93" transform="translate(-325.47 -93.67)"/></g><g id="Layer_11" data-name="Layer 11"><path class="cls-4" d="M367.86,112.4a11.66,11.66,0,0,1,.77,4.32,3.32,3.32,0,0,1-.77,2.48,3.94,3.94,0,0,1-2.7.72H341.94l-1.4,17a56.22,56.22,0,0,1,10.89-1.17q8.77,0,13.84,3.84t5.07,12.76a19.78,19.78,0,0,1-7.68,16.18q-7.67,6.19-23.24,6.19-8.82,0-11.39-1.26a4.57,4.57,0,0,1-2.56-4.5,10.39,10.39,0,0,1,2.34-6.17q8.37,4,14.53,4,6.53,0,9.5-2.84t3-8.14q0-6.21-2.9-8.89a10.72,10.72,0,0,0-7.54-2.68,25.94,25.94,0,0,0-8.24,1.49H329.2q-1.53-1.89-1.3-5.63l1.44-22.45c.06-2,.46-3.32,1.21-4.1a4.41,4.41,0,0,1,3.33-1.17Z" transform="translate(-325.47 -93.67)"/><path class="cls-4" d="M438.06,155.86q-7.67.4-12.12-3.28t-5-14.77q-.68-12.56,4-18.71t14.27-6.66q7.67-.41,12.12,3.28t5.05,15q.64,12.35-4,18.49T438.06,155.86Zm-.59-37.4a5.72,5.72,0,0,0-4.92,3.16q-1.69,3-1.24,11.51.56,10.56,2.68,13.73a6.22,6.22,0,0,0,5.82,3,5.63,5.63,0,0,0,5-3.17q1.56-3,1.12-11.32-.56-10.42-2.73-13.76A6.2,6.2,0,0,0,437.47,118.46Z" transform="translate(-325.47 -93.67)"/><path class="cls-4" d="M395.13,163.93q-9.17.28-14.39-4.25t-5.62-17.77q-.45-15,5.31-22.25t17.24-7.58q9.16-.27,14.39,4.25t5.62,18q.45,14.76-5.31,22T395.13,163.93Zm.32-44.71a6.87,6.87,0,0,0-6,3.65q-2.12,3.52-1.8,13.72.38,12.63,2.83,16.48a7.43,7.43,0,0,0,6.87,3.72,6.74,6.74,0,0,0,6.11-3.65q1.93-3.51,1.64-13.5-.37-12.48-2.89-16.51A7.41,7.41,0,0,0,395.45,119.22Z" transform="translate(-325.47 -93.67)"/></g><g id="Layer_12" data-name="Layer 12"><text class="cls-5" transform="translate(133.84 50)">e</text><text class="cls-6" transform="translate(166.74 43.66)">r</text><text class="cls-7" transform="translate(188.64 37.87)">r</text><text class="cls-8" transform="translate(208.33 33.22)">o</text><text class="cls-9" transform="translate(228.17 30.91)">r</text></g><g id="Layer_13" data-name="Layer 13"><text class="cls-10" transform="translate(79.7 100.35)">in<tspan class="cls-11" x="14.4" y="0">t</tspan><tspan x="20.34" y="0">e</tspan><tspan class="cls-12" x="29.52" y="0">r</tspan><tspan x="35.56" y="0">nal se</tspan><tspan class="cls-13" x="79.66" y="0">r</tspan><tspan class="cls-14" x="86.04" y="0">v</tspan><tspan x="94.2" y="0">er e</tspan><tspan class="cls-15" x="122.74" y="0">r</tspan><tspan class="cls-16" x="128.79" y="0">r</tspan><tspan x="134.75" y="0">or</tspan></text><text class="cls-17" transform="translate(79.93 127)">so<tspan class="cls-12" x="11.36" y="0">r</tspan><tspan class="cls-13" x="15.39" y="0">r</tspan><tspan x="19.64" y="0">y </tspan><tspan class="cls-18" x="27.92" y="0">f</tspan><tspan x="31.37" y="0">or t</tspan><tspan class="cls-19" x="48.65" y="0">h</tspan><tspan x="55.49" y="0">e i</tspan><tspan class="cls-20" x="67.09" y="0">n</tspan><tspan class="cls-21" x="73.93" y="0">c</tspan><tspan x="79.56" y="0">o</tspan><tspan class="cls-22" x="85.91" y="0">n</tspan><tspan class="cls-23" x="92.62" y="0">v</tspan><tspan x="98.06" y="0">enie</tspan><tspan class="cls-20" x="119.9" y="0">n</tspan><tspan class="cls-18" x="126.74" y="0">c</tspan><tspan x="132.37" y="0">e. </tspan><tspan class="cls-23" x="143.45" y="0">w</tspan><tspan x="152.29" y="0">e </tspan><tspan x="36.16" y="12">a</tspan><tspan class="cls-24" x="42.14" y="12">r</tspan><tspan x="46.12" y="12">e </tspan><tspan class="cls-23" x="54.93" y="12">w</tspan><tspan x="63.77" y="12">o</tspan><tspan class="cls-12" x="70.12" y="12">rk</tspan><tspan x="80.24" y="12">i</tspan><tspan class="cls-19" x="83.03" y="12">n</tspan><tspan x="89.87" y="12">g on it</tspan></text></g></svg>