<svg id="Layer_3" data-name="Layer 3" xmlns="http://www.w3.org/2000/svg" viewBox="0 0 222.56 222.56"><defs><style>.cls-1{fill:#fff;}.cls-2{fill:none;stroke:#fff;stroke-miterlimit:10;stroke-width:13px;}</style></defs><title>facebook</title><path class="cls-1" d="M838,125.86a20.32,20.32,0,0,1,20.3,20.29v156A20.32,20.32,0,0,1,838,322.41H682a20.32,20.32,0,0,1-20.3-20.29v-156A20.32,20.32,0,0,1,682,125.86H838m0-13H682a33.3,33.3,0,0,0-33.3,33.29v156A33.29,33.29,0,0,0,682,335.41H838a33.29,33.29,0,0,0,33.3-33.29v-156A33.3,33.3,0,0,0,838,112.86Z" transform="translate(-648.72 -112.86)"/><path class="cls-2" d="M745,328.3V262.54H716.85V221.1H745c-6.41-66.5,30.41-68.72,80.2-65.76V194.5l-38.77.38V221.1l38.77.76-8.36,39.54L784.89,261l.38,67.28" transform="translate(-648.72 -112.86)"/></svg>