<svg xmlns="http://www.w3.org/2000/svg" viewBox="0 0 180.05 219.61"><defs><style>.cls-1,.cls-11{fill:#efdbce;}.cls-1{stroke:#efdbce;}.cls-1,.cls-10,.cls-12,.cls-13,.cls-15,.cls-16,.cls-17,.cls-19,.cls-2,.cls-3,.cls-5,.cls-6,.cls-8,.cls-9{stroke-miterlimit:10;}.cls-16,.cls-2{fill:#494949;}.cls-2{stroke:#494949;}.cls-12,.cls-3,.cls-4,.cls-5{fill:#2c2c2d;}.cls-12,.cls-3,.cls-5{stroke:#2c2c2d;}.cls-3{stroke-width:1.15px;}.cls-13,.cls-14,.cls-15,.cls-6{fill:#848383;}.cls-13,.cls-15,.cls-6{stroke:#848383;}.cls-7{fill:#a5a5a5;}.cls-20,.cls-8{fill:#594003;}.cls-8{stroke:#594003;}.cls-9{fill:#eb6fbd;stroke:#eb6fbd;}.cls-10{fill:#8e3670;stroke:#8e3670;}.cls-12{stroke-width:0.98px;}.cls-13{stroke-width:0.1px;}.cls-15{stroke-width:0.25px;}.cls-16,.cls-17{stroke:#2d2b2b;}.cls-17{fill:none;}.cls-18{fill:#2d2b2b;}.cls-19{fill:#d3b972;stroke:#d3b972;stroke-width:0.59px;}</style></defs><title>kiraandI</title><g id="_2-skin" data-name="2-skin"><path class="cls-1" d="M299.17,80.8c-.06,1.81.81,3.6.64,5.39-.08.86-.43,1.65-.51,2.52s0,1.79-.14,2.69-.32,1.57-.44,2.37a12.2,12.2,0,0,0,0,2.18c0,1.64.1,3.28.19,4.92.21,3.5.53,7,.72,10.48s-.27,6.82,0,10.12A90.31,90.31,0,0,0,298.18,110c-.35-1.67-.79-3.33-1.24-5L294.3,95.2c-.5-1.83-1.52-3.45-2.13-5.23-.28-.85-.23-1.76-.48-2.59-.09-.29-.32-.5-.37-.82a1.77,1.77,0,0,1,.55-1.36,4.48,4.48,0,0,0,1-1.5,6.66,6.66,0,0,0,.23-2,7,7,0,0,0-.72-2.16,33.16,33.16,0,0,0-3.32-4.91,7.35,7.35,0,0,1-2.57-1.6c-1.49-2.12-2.56-6.11-3.44-9.63-.59-2.34.58-4.79.65-7.21.05-2.1-.76-4.05.88-5.73a8.79,8.79,0,0,1,3.22-1.9,15.37,15.37,0,0,1,4.26-1c3.64-.26,7.19,1.48,9.88,3.94A20.4,20.4,0,0,1,305,55a2.49,2.49,0,0,1,.5,1.2,3.53,3.53,0,0,1-.3,1.22c-.57,1.73-.09,3.61,0,5.44a18.25,18.25,0,0,1-1,5.8,41.33,41.33,0,0,1-4.07,9.14,6.88,6.88,0,0,0-.82,1.68A6.37,6.37,0,0,0,299.17,80.8Z" transform="translate(-156.48 -29)"/><path class="cls-1" d="M329.16,157.67a1.89,1.89,0,0,0,.66,1.13,2,2,0,0,0,.81.27c1.08.19,2.33.34,3.15-.39a3.08,3.08,0,0,0,.82-2c.32-2.66-.5-5.38,0-8-.09.48-2.33.63-2.71.64a7.54,7.54,0,0,1-2.81-.65c-.5-.19-.6-.21-.66.34a14.92,14.92,0,0,0,0,1.64c0,1.11,0,2.22.12,3.32A18.44,18.44,0,0,0,329.16,157.67Z" transform="translate(-156.48 -29)"/><path class="cls-1" d="M260.24,151.12c.86,0,1.72-.08,2.58-.09.13,0,.29,0,.36.11a.39.39,0,0,1,.05.24l0,2.52a24.34,24.34,0,0,1-.63,7.38,1.8,1.8,0,0,1-1.23-.73l-1.17-1.24a9,9,0,0,1-1-1.16,6.69,6.69,0,0,1-.75-1.68,17,17,0,0,1-.79-4.37,6.86,6.86,0,0,1,0-1.11c.05-.51,0-.44.43-.35A10.6,10.6,0,0,0,260.24,151.12Z" transform="translate(-156.48 -29)"/><path class="cls-1" d="M286.07,223.61c.6,0,1.36.12,1.54.7a1.44,1.44,0,0,1-.35,1.18c-2.05,3.13-4.25,6.17-6.6,9.09.3-.37.15-1.84.18-2.33,0-.92.05-1.85.06-2.78a17.69,17.69,0,0,0-.54-4.86,1.41,1.41,0,0,1,0-.86,1,1,0,0,1,.77-.55,3,3,0,0,1,1,.07A20.55,20.55,0,0,0,286.07,223.61Z" transform="translate(-156.48 -29)"/><path class="cls-1" d="M316.47,225c-.12,3.56-.24,7.12-.05,10.68-1.57-1.41-2.45-3.4-3.69-5.1-.67-.93-3.65-3.72-2.81-5S315.21,225.06,316.47,225Z" transform="translate(-156.48 -29)"/></g><g id="_2-jacket" data-name="2-jacket"><path class="cls-2" d="M300.27,84.41c.77,10.9-.91,35.18.06,48.53C298,120.43,293.75,87.94,291,86c-2.33-1.62-20.78-.77-20.78-.77-4.05-.34-5.66,2.34-6.2,6.32-4.36,17.44-6.41,36.88-7.55,57.11,2.08,2.35,4.39,3,7.1.79,2.82-5.5,4.68-25.7,6.63-44.57,0,32-5.81,65.87-3.29,71a364.52,364.52,0,0,0,57.91,2.24c2.93-4.16-2.75-44.87-1.88-73.07,1.07,16.65,2.3,31.81,3.93,43.32a56.76,56.76,0,0,0,8.75,0c1.3-7.14-.76-29.37-2.25-49.06-.52-8.78-5.18-13.11-13.72-13.3Z" transform="translate(-156.48 -29)"/></g><g id="_2-jacket_details" data-name="2-jacket details"><polygon class="cls-3" points="143.99 56.12 153.85 63.55 148.87 66.95 151.63 70.42 141.64 99.41 128.93 74.14 132.28 67.74 125.51 66.22 136.13 56.36 142.3 89.22 143.99 56.12"/><path class="cls-4" d="M297.84,136a.5.5,0,0,0,0-1,.5.5,0,0,0,0,1Z" transform="translate(-156.48 -29)"/><path class="cls-4" d="M297.84,140.38a.5.5,0,0,0,0-1,.5.5,0,0,0,0,1Z" transform="translate(-156.48 -29)"/><path class="cls-4" d="M297.84,143.94a.5.5,0,0,0,0-1,.5.5,0,0,0,0,1Z" transform="translate(-156.48 -29)"/><path class="cls-4" d="M297.49,149.57c.22,1.22.33,2.43.49,3.65l.32,3.64c.18,2.44.22,4.87.34,7.3s0,4.88-.05,7.31l-.16,3.66c-.12,1.22-.17,2.44-.34,3.66H298l-.35-14.6-.25-14.61Z" transform="translate(-156.48 -29)"/></g><g id="_2-trousers" data-name="2-trousers"><path class="cls-5" d="M279.05,177.61c-2.58,16.17-.44,44.57.44,45.56s7,.69,8.15.35,4.6-42,3.58-44.58Z" transform="translate(-156.48 -29)"/><path class="cls-5" d="M307.12,179.29l11.12-.4c1.37,10.5-.64,45.47-1.21,45.86s-7.77.56-8.45,0S307.12,179.29,307.12,179.29Z" transform="translate(-156.48 -29)"/></g><g id="_2-shoes" data-name="2-shoes"><path class="cls-6" d="M274.19,239.6a9.32,9.32,0,0,0,.07,5,4.22,4.22,0,0,0,3.73,2.94c2.31,0,3.83-2.33,4.91-4.36l2.38-4.46a41.56,41.56,0,0,0,2.12-4.41,20.05,20.05,0,0,0,1.32-8.08c0-.46-.22-1.07-.68-1-1.89,4.07-4,8.41-8,10.53.06-2,.25-4.11.21-6.15s1.07-4.69-1.9-.39A29.24,29.24,0,0,0,274.19,239.6Z" transform="translate(-156.48 -29)"/><path class="cls-6" d="M323.59,240a9.32,9.32,0,0,1-.07,5,4.22,4.22,0,0,1-3.73,2.94c-2.3,0-3.83-2.33-4.91-4.37l-2.38-4.45a42.51,42.51,0,0,1-2.12-4.41,20.11,20.11,0,0,1-1.32-8.08c0-.47.22-1.08.68-1,1.9,4.08,4,8.42,8,10.54a15,15,0,0,1-.78-6.25c.32-6.66-.5-4.59,2.47-.3A29.36,29.36,0,0,1,323.59,240Z" transform="translate(-156.48 -29)"/><path class="cls-7" d="M309.74,225.19l1.46,2.6c.48.86,1,1.67,1.49,2.54a10.27,10.27,0,0,0,1.72,2.41,12.82,12.82,0,0,0,2.36,1.8l-.6.25c0-.82.11-1.63.17-2.45s.11-1.63.21-2.44.2-1.63.32-2.44.25-1.62.44-2.44h.1c.12.83.16,1.66.2,2.49s0,1.65,0,2.47a22.71,22.71,0,0,1-.25,2.47c-.12.81-.23,1.63-.41,2.44l-.15.66-.46-.41c-.76-.69-1.43-1.46-2.12-2.19s-1.43-1.42-2.1-2.2a9.78,9.78,0,0,1-1.61-2.59,10.31,10.31,0,0,1-.83-2.94Z" transform="translate(-156.48 -29)"/><path class="cls-7" d="M280.46,226.83a21.7,21.7,0,0,1,.38,4.09c0,1.36-.32,2.72-.32,4.08l-.24-.13a9.56,9.56,0,0,0,2.21-2.14c.32-.4.64-.79.93-1.21l.85-1.29,1.8-2.52c.6-.84,1.17-1.68,1.7-2.6l.09,0a9.8,9.8,0,0,1-1.05,3,18.54,18.54,0,0,1-1.68,2.68,14.13,14.13,0,0,1-2.1,2.41c-.82.7-1.72,1.27-2.58,1.87l-.24.17V235c0-1.37-.32-2.73-.27-4.09a22.6,22.6,0,0,1,.42-4.08Z" transform="translate(-156.48 -29)"/></g><g id="_2-hair" data-name="2-hair"><path class="cls-8" d="M270.64,84.87A88.18,88.18,0,0,1,279,62.15c1.63-3,3.48-6.09,4.07-9.5a63.6,63.6,0,0,0,.73,11.93,23.16,23.16,0,0,0,.61,3.82c.59,2.11.76,3.71,2.19,5.25s3.47,2.72,4.76,4.49,2,4.17,1.08,6.17a1.84,1.84,0,0,1-.68.87,2.35,2.35,0,0,1-1.29.19C283.82,85.08,277.31,85.15,270.64,84.87Z" transform="translate(-156.48 -29)"/><path class="cls-8" d="M301.57,74.52c-1.25,2.46-2.74,5.15-2.05,7.82a1.85,1.85,0,0,0,.59,1,2.11,2.11,0,0,0,1.13.31q9.12.8,18.25,1.31c-1.15-3.63-4.54-4.61-6.38-7.94-.81-1.47-2.15-3.67-2.42-5.31A74.92,74.92,0,0,0,308.42,62c-.46-1.48-.92-3-1.51-4.41-.8-4.48-1.3-.72-1.3-.72s.1,3.2,0,4.68a27.5,27.5,0,0,1-.73,4.34A39.46,39.46,0,0,1,301.57,74.52Z" transform="translate(-156.48 -29)"/></g><g id="_2-hat" data-name="2-hat"><path class="cls-9" d="M313.73,78.45c4.45-2.12,7.37-6.8,8.13-11.67A25.38,25.38,0,0,0,319.4,52.4a30.08,30.08,0,0,0-9.24-11.78,29.22,29.22,0,0,0-20.22-5.1c-9.27.95-18.34,6.17-22.51,14.5s-2.4,19.63,5,25.25c3.08-6.8,6-13.39,9.1-20.19a19,19,0,0,1,3.17-5.35c3.81-4,10.69-3.9,15.33-.82s7.37,8.34,9,13.65S311.85,73.21,313.73,78.45Z" transform="translate(-156.48 -29)"/><path class="cls-10" d="M300.26,35.55c.12-.6-.72-1.71-1.27-2.56a6.61,6.61,0,0,0-1.19-1.49c-1.14-.95-2.76-1-4.24-1a5.43,5.43,0,0,0-3.14.68A5.63,5.63,0,0,0,289,32.93a3.4,3.4,0,0,0-.7,2.15,31.89,31.89,0,0,1,5.16-.43C295.85,34.63,299.68,35.77,300.26,35.55Z" transform="translate(-156.48 -29)"/></g><g id="_1-skin" data-name="1-skin"><path class="cls-11" d="M202.26,47.86c-2,.26-3.85-.5-5.8-.36A5.49,5.49,0,0,0,192,49.83c-.92,1.41,1.24,3.12,2.36,1.82a5.66,5.66,0,0,1,3.67-1.9c1.76-.21,3.44.45,5.17.31a5.82,5.82,0,0,0,2.35-.8,2.09,2.09,0,0,1,1.61-.32c1.24.32,1.67,1.86,2,2.93.61,1.82,3.51,1,2.9-.8s-1.3-3.53-2.94-4.52a4.68,4.68,0,0,0-2.73-.66,8.7,8.7,0,0,0-2.87,1,5.72,5.72,0,0,1-2.78-.13,12.38,12.38,0,0,0-3.33,0,8.31,8.31,0,0,0-5.19,2.7l2.35,1.82c.57-.87,1.87-.91,2.8-.85a24.45,24.45,0,0,0,4.83.36,1.56,1.56,0,0,0,1.5-1.5c0-.73-.69-1.61-1.5-1.5Z" transform="translate(-156.48 -29)"/><path class="cls-11" d="M209.4,52.2c1.23,2.57-.09,6.31-1,8.77a75.22,75.22,0,0,1-4.26,8.16,5.6,5.6,0,0,0-.64,3.88c.31,1.49,1.09,2.85,1.5,4.31a5.69,5.69,0,0,1,.21,2.46,5.25,5.25,0,0,0-.19,1.93,2.67,2.67,0,0,0,.81,1.45c.34.33,1,.55,1.25,1l.89-2.2a20.2,20.2,0,0,1-3.17.72c-1.21.15-2.48-.07-3.66.1l-.23,0c-.29-.08-.31,0,0,.23l.16.25c-.05-.22-.1-.45-.14-.68a10.38,10.38,0,0,1-.16-1.67,31.11,31.11,0,0,1,.26-3.33c.17-2.28-.74-4.33-1.54-6.42a33.62,33.62,0,0,0-2.35-5.76c-1-1.55-2.68-2.26-4.1-3.31a6.75,6.75,0,0,1-2.17-5.23c.12-1.78,1.66-3.72,3-4.79,1.81-1.41,2.84.16,4.3,1.16,1.74,1.19,3.53.84,5.22-.25a3.31,3.31,0,0,1,2.17-.87,2.2,2.2,0,0,1,1.82,1.5c.57,1.84,3.46,1.06,2.89-.8a5.23,5.23,0,0,0-4.42-3.67,4.92,4.92,0,0,0-2.79.52c-.77.39-1.78,1.5-2.69,1.35s-1.48-1.05-2.07-1.49A4.69,4.69,0,0,0,195,48.4c-2.4.18-4.14,2.14-5.46,4a7.89,7.89,0,0,0-1.35,7,8.86,8.86,0,0,0,3.68,5.51,11.87,11.87,0,0,1,2.42,1.71,11.9,11.9,0,0,1,1.6,3.6c1,2.6,2.34,5.14,2,8a17.52,17.52,0,0,0,0,4.46c.17,1.2.37,2.52,1.7,2.93a12.72,12.72,0,0,0,4.31.16,22.47,22.47,0,0,0,4.88-.91,1.53,1.53,0,0,0,.9-2.2,3.27,3.27,0,0,0-1.17-1.25c-.11-.07-.6-.29-.63-.38,0,.13.25-.51.27-.62a9,9,0,0,0-.44-4.48c-.43-1.29-1.49-2.87-1.31-4.27s1.42-2.78,2.08-4A37,37,0,0,0,212,59.5c.8-2.85,1.3-6,0-8.82-.83-1.74-3.42-.22-2.59,1.52Z" transform="translate(-156.48 -29)"/><path class="cls-11" d="M209.9,51.34a3.88,3.88,0,0,0-4.62-2.83,5.42,5.42,0,0,0-2.52,1.75,11.44,11.44,0,0,1-1.06,1.14c-.67.55-.92.36-1.61,0-1.79-1-4.15-1.15-5.62.48s-1.91,4.49-2.27,6.71l3,.4.18-3.76c.09-1.64-2-1.83-2.79-.76l-.81,1.08L194.32,57a32.93,32.93,0,0,1,2-3.85c.87-1.42-1.25-3.15-2.36-1.82-1.94,2.33-3.78,5-2.86,8.15a1.51,1.51,0,0,0,2.89,0,25.15,25.15,0,0,0,.58-5.61c0-1.39-2.14-2.16-2.8-.75-.77,1.64-3,6.4-.06,7.14a1.54,1.54,0,0,0,1.69-.69c1.06-1.68,2.91-5.85.53-7.19a1.53,1.53,0,0,0-2.05.54,6.75,6.75,0,0,0-.3,6.9c.62,1.14,1.57,2.07,2.27,3.16a14.47,14.47,0,0,1,1.73,3.82l2.89-.8c-1.13-2.88-2.78-6.51-5.82-7.73a1.5,1.5,0,0,0-1.9,1.44,8,8,0,0,0,2.27,5.44,4.61,4.61,0,0,0,2.54,1.51c1.14.11,1.81-.78,2.24-1.72a30.1,30.1,0,0,0,2-7c.53-2.63,1-5.27,1.38-7.9a1.5,1.5,0,0,0-2.89-.8l-2.82,8.09,2.95.4-.46-5.3a1.5,1.5,0,0,0-2.94-.4,22.41,22.41,0,0,0-1.55,8.64c0,1.41,2.1,2.14,2.79.76a35.74,35.74,0,0,0,2.4-6.24l-2.9-.8a31.81,31.81,0,0,0-.94,5c-.15,1.41-.27,2.75,1.26,3.34a1.44,1.44,0,0,0,1.46-.39,74.06,74.06,0,0,0,5.91-7.75l-2.74-1.16a54.3,54.3,0,0,1-2.13,6.62l2.94.4c0-2.1-.15-4.28,0-6.37.08-.9.64-1.11,1.49-1.22,1.23-.17,1,.63,1.46,1.51a2,2,0,0,0,1.84,1.13,5.75,5.75,0,0,0,1.08-.22,14.65,14.65,0,0,0,1.89-.35c.76-1.27.76-1.88,0-1.85l-.7,0-1.86-.1-3.24-.17c-1.72-.09-2,2.5-.4,2.94q3,.84,5.95,1.92l.79-2.89q-2.3-.34-4.56-.87c-1.57-.36-2.75,2-1.15,2.74a48.26,48.26,0,0,1,4.34,2.4l.76-2.79a20.41,20.41,0,0,1-6.42-.61,1.51,1.51,0,0,0-1.16,2.74l5.26,3.33L208.08,59q-2.64-.65-5.21-1.53c-1.58-.55-2.73,2.07-1.16,2.74,2.13.9,4.29,1.72,6.49,2.44A1.51,1.51,0,0,0,210,60.83l-.59-2.5c-.4-1.7-2.86-1.24-2.94.4a17.47,17.47,0,0,1-1,5l2.89.79c.56-1.83,1.1-3.67,1.64-5.51a1.46,1.46,0,0,0-.38-1.46c-2-1.56-4,.25-4.92,2.14-1.13,2.33-1.06,4.92-1.55,7.41l2.94.4.15-13.23c0-1.64-2.64-2.1-3-.4a92.51,92.51,0,0,0-1.11,13.71l2.95-.4c-.45-2.08-.82-4.2-1.35-6.26a4.21,4.21,0,0,0-2.75-3.34,1.54,1.54,0,0,0-1.85,1,14.2,14.2,0,0,0,.1,9.24c1,3.28.33,7.1-.08,10.44l2.8-.75c-1.63-3.68-2.28-7.7-2.93-11.65L196.39,67q1.89,4.29,4.09,8.44a1.52,1.52,0,0,0,2.8-.76,21.94,21.94,0,0,0-1-7.37c-.5-1.53-3.09-1.36-2.95.4A24.89,24.89,0,0,0,200,72.1c.48,1.88,3.3,1.08,2.89-.8a26.85,26.85,0,0,0-3.75-9,1.5,1.5,0,0,0-2.59,1.52A10.3,10.3,0,0,0,199.09,67,6.2,6.2,0,0,1,201,70.71a1.51,1.51,0,0,0,2.74.36l.91-2.1-2.74-.36a37.38,37.38,0,0,1,.62,5.68,4.37,4.37,0,0,1-.25,2.27c-.42.8-1,1.55-1.45,2.3-.74,1.17-2,2.79-.78,4.1,1,1.08,3.14.73,4.44.56a1.5,1.5,0,0,0,1.1-1.45,33.38,33.38,0,0,0-.07-4.69c-.17-1.9-3.17-1.92-3,0a33.38,33.38,0,0,1,.07,4.69l1.1-1.44c-.41.05-1.44.23-1.82,0l.69.89c.11.34,0,.25.23-.12s.34-.54.51-.8l1.14-1.8a6.21,6.21,0,0,0,1.11-3.15,34.86,34.86,0,0,0-.75-7.82,1.51,1.51,0,0,0-2.74-.36l-.91,2.1,2.75.36a8.31,8.31,0,0,0-2-4.28c-1-1.11-2.19-1.94-2.79-3.34l-2.59,1.52A24.49,24.49,0,0,1,200,72.1l2.89-.8a20.48,20.48,0,0,1-.6-3.57l-2.95.4a19.25,19.25,0,0,1,.92,6.57l2.79-.76q-2.2-4.14-4.09-8.43c-.73-1.68-3-.38-2.74,1.15A50.15,50.15,0,0,0,199.47,79c.68,1.53,2.63.51,2.79-.76.4-3.2.91-6.69.31-9.89-.27-1.49-.94-2.85-1.08-4.37a10.77,10.77,0,0,1,.65-4.63l-1.85,1.05c.76.22.89,2.31,1,2.93l1,4.58c.37,1.7,2.91,1.25,3-.4a85.76,85.76,0,0,1,1-12.91l-2.95-.4-.15,13.23c0,1.65,2.62,2.09,2.95.4s.37-3.14.67-4.7a9.75,9.75,0,0,1,.51-1.83,5.5,5.5,0,0,1,.44-.83l.21-.3c.44-.31.31-.49-.38-.57l-.38-1.46q-.81,2.76-1.64,5.52c-.56,1.86,2.27,2.6,2.89.79a20,20,0,0,0,1.09-5.74l-2.95.4.59,2.5L209,59.78c-1.95-.64-3.88-1.34-5.77-2.14l-1.16,2.74c1.72.59,3.45,1.1,5.22,1.53a1.51,1.51,0,0,0,1.15-2.74l-5.25-3.33L202,58.58a22.81,22.81,0,0,0,7.22.72,1.51,1.51,0,0,0,.75-2.8,46.93,46.93,0,0,0-4.34-2.4l-1.15,2.75c1.51.34,3,.63,4.56.86a1.5,1.5,0,0,0,.79-2.89c-2-.72-3.94-1.36-6-1.92l-.39,3,4.87.26c1.24.06,2.82.23,3.49-1.11a2.12,2.12,0,0,0-1.29-2.89,5.14,5.14,0,0,0-2.34,0,10.08,10.08,0,0,1-2.11.41l1.06.44c-.4-.31-.52-1.37-.86-1.82A3.16,3.16,0,0,0,204.53,50a5.84,5.84,0,0,0-4.36.86c-1.34.92-1.59,2.35-1.6,3.88,0,1.92,0,3.85,0,5.78s2.36,1.9,2.95.4a51.54,51.54,0,0,0,2.13-6.62,1.51,1.51,0,0,0-2.74-1.16,68.7,68.7,0,0,1-5.44,7.15l1.46-.38-.17-.07.9.69c.33.73.13-.28.16-.6,0-.57.13-1.14.22-1.7a30.52,30.52,0,0,1,.67-3,1.51,1.51,0,0,0-2.9-.8A30.14,30.14,0,0,1,193.7,60l2.8.76a20,20,0,0,1,1.44-7.84l-2.95-.4.46,5.3a1.5,1.5,0,0,0,2.94.4l2.82-8.09-2.89-.8c-.6,3.69-1.17,7.41-2.07,11a19.61,19.61,0,0,1-.74,2.48C195.45,63,195,64,195,64l1.19-.24a4.45,4.45,0,0,1-.58-.38,4.83,4.83,0,0,1-1.79-3.68l-1.9,1.45c.92.37,1.57,1.57,2.06,2.35a19.56,19.56,0,0,1,1.67,3.29c.69,1.75,3.45,1.09,2.89-.8a17.78,17.78,0,0,0-3.1-6c-1.37-1.75-2.25-3.48-.9-5.54l-2,.53c-.52-.29-.3-1-.44,0a7.7,7.7,0,0,1-.23,1.06,7.81,7.81,0,0,1-.94,2l1.7-.69-.19,0,.89.69s.36-1.25.42-1.45a14.45,14.45,0,0,1,.73-1.93l-2.79-.76a21.56,21.56,0,0,1-.47,4.81H194c-.58-2,.88-3.76,2.09-5.22l-2.35-1.82a32.93,32.93,0,0,0-2,3.85A1.5,1.5,0,0,0,194.32,57l.81-1.07-2.8-.76L192.15,59c-.09,1.66,2.67,2.08,2.94.4a16.46,16.46,0,0,1,1.25-5c.94-1.78,2.4-.08,3.67.3,1.63.5,3.19-.49,4.27-1.63.53-.57,2.23-2.81,2.73-.94a1.5,1.5,0,0,0,2.89-.79Z" transform="translate(-156.48 -29)"/><path class="cls-11" d="M201.33,64.63v4.2a1.5,1.5,0,1,0,3,0v-4.2a1.5,1.5,0,0,0-3,0Z" transform="translate(-156.48 -29)"/><path class="cls-11" d="M237.24,149.24a70.77,70.77,0,0,1,.27,7.42.5.5,0,0,0,.5.5c.78,0,1-.84,1.28-1.44q.48-1.12.87-2.28a26.88,26.88,0,0,0,1.12-4.77.51.51,0,0,0-.61-.62,19,19,0,0,0-2.26.38c-.7.2-.69.92-.73,1.53a14.51,14.51,0,0,0,.39,4.4.5.5,0,0,0,1,0l.82-2.59.41-1.29c.12-.37.33-.81.13-1.19-.38-.68-1.3-.24-1.66.22a2.78,2.78,0,0,0-.31,2.22c.1.63,1.06.36,1-.27-.07-.43-.18-1,.16-1.38.13-.14.23-.05,0-.26s-.16,0-.22.17l-.27.83-1,3.28h1a14.16,14.16,0,0,1-.38-3.61c0-.28,0-.56,0-.84,0-.07.09-.34,0-.26a1.41,1.41,0,0,1,.41-.07l1.84-.3-.61-.62a28.14,28.14,0,0,1-.9,4.07c-.2.66-.43,1.32-.68,2-.13.33-.26.65-.4,1a6.88,6.88,0,0,1-.33.74l.5.5a70.77,70.77,0,0,0-.27-7.42c-.06-.63-1.06-.64-1,0Z" transform="translate(-156.48 -29)"/><path class="cls-11" d="M238.66,149a5.76,5.76,0,0,0-.18,2.8,6,6,0,0,1-.59,2.73.53.53,0,0,0,.18.69.51.51,0,0,0,.68-.18,7.23,7.23,0,0,0,.72-2.84,10.47,10.47,0,0,0-.06-1.37,2.61,2.61,0,0,1,.11-1.33.5.5,0,0,0-.18-.68.49.49,0,0,0-.68.18Z" transform="translate(-156.48 -29)"/><path class="cls-11" d="M170,148.58a16.72,16.72,0,0,0,4,10.37c.42.49,1.13-.22.71-.71a15.63,15.63,0,0,1-3.68-9.66.5.5,0,0,0-1,0Z" transform="translate(-156.48 -29)"/><path class="cls-11" d="M170.69,149.1l4.68-.08-.5-.5c-.07,1.63-.17,3.26-.31,4.88-.06.8-.14,1.59-.23,2.38,0,.4-.09.8-.14,1.19,0,.2,0,.4-.07.6s-.14.57,0,.54l.39,0c-.19-.11-.42-.73-.52-.93s-.33-.64-.47-1a21.94,21.94,0,0,1-1.47-4.44c-.09-.4-.17-.81-.23-1.22a2.89,2.89,0,0,1-.08-.58c0-.24.08-.17.32-.16l1.25,0,.57,0c.09,0,.65.07.54,0s-.09-.07-.05.13a2,2,0,0,1,0,.43,4.9,4.9,0,0,1-.13.55c-.1.4-.22.79-.31,1.19a14.69,14.69,0,0,0-.35,2.38c0,.41,0,.82,0,1.23a1.73,1.73,0,0,1-.14,1.08l.78-.11a2.76,2.76,0,0,1-.44-1.26c-.09-.44-.19-.89-.28-1.34-.2-.93-.46-1.87-.6-2.8-.05-.36-.08-.86.34-1,.61-.21.68.53.59.93-.23.92-.62,1.82-.93,2.72l1,.14c-.1-1-.2-1.93-.26-2.9a2.2,2.2,0,0,0-1.76-1.74.51.51,0,0,0-.62.61c.16.77.34,1.54.55,2.29a.5.5,0,0,0,1-.26c-.22-.76-.4-1.52-.55-2.29l-.62.61a1.6,1.6,0,0,1,1,.78,1.13,1.13,0,0,0,.87.54c.67,0,1.26-.79.68-1.33a.94.94,0,0,0-1.52.59,4.56,4.56,0,0,0,.06,1.38l.18,1.72a.5.5,0,0,0,1,.13l.71-2.1a2.7,2.7,0,0,0,.19-1.93,1.51,1.51,0,0,0-2.56-.33,2.06,2.06,0,0,0-.3,1.55c.11.74.3,1.47.46,2.2l.45,2.11a3.61,3.61,0,0,0,.7,1.7.5.5,0,0,0,.78-.1,2.17,2.17,0,0,0,.29-1.39,13.26,13.26,0,0,1,0-1.89c.12-1.23.56-2.36.74-3.57a1.61,1.61,0,0,0-.15-1.29c-.34-.41-1-.31-1.48-.32l-1.72-.07c-.48,0-1,0-1.16.52a2.66,2.66,0,0,0,0,1.4c.09.59.2,1.18.34,1.75a22.42,22.42,0,0,0,1.07,3.31c.19.48.4.95.63,1.42a6.5,6.5,0,0,0,.87,1.57.68.68,0,0,0,1,0,3.16,3.16,0,0,0,.35-1.58c.36-2.91.59-5.82.71-8.75a.51.51,0,0,0-.5-.5l-4.68.08a.5.5,0,0,0,0,1Z" transform="translate(-156.48 -29)"/><path class="cls-1" d="M190.66,216.62a27.85,27.85,0,0,1,5-.7c.65,1.68.07,4.83.37,8.08a7.47,7.47,0,0,1-4.81,0A53.75,53.75,0,0,1,190.66,216.62Z" transform="translate(-156.48 -29)"/><path class="cls-1" d="M220.71,214h4.51c.53,3.83,1.14,7.87.92,9.52a17.16,17.16,0,0,1-5,0A50.9,50.9,0,0,1,220.71,214Z" transform="translate(-156.48 -29)"/></g><g id="_1-pants" data-name="1-pants"><path class="cls-2" d="M193.91,138.89c1.59-.86,34.36-.77,35.19-.39s1.64,53.74.1,74.75a61.78,61.78,0,0,1-13.09-.53c-2.59-3.49-3.87-31.17-5.61-50.3a290.66,290.66,0,0,0-8.05,49.31c-1.72,4-9.67,3.54-16.07,4.19C183.59,214.9,192.33,139.75,193.91,138.89Z" transform="translate(-156.48 -29)"/><path class="cls-12" d="M193.8,138.22c.74-.74,34.71-1.05,35-.19s1,2.58.31,3.15-35,1.13-35.55.56S193.07,139,193.8,138.22Z" transform="translate(-156.48 -29)"/></g><g id="_1-shirt" data-name="1-shirt"><path class="cls-9" d="M198.54,85.51l10.9-.76c6.7,8.27,12,16.61,14.85,25.09-.86,2.44,7.59,28.64,3.85,28.24s-32.86.44-33.79.22,1-15.82.86-18.78c-.06-1.4-.6-2.19-.55-4.9C194.71,112.19,198.54,85.51,198.54,85.51Z" transform="translate(-156.48 -29)"/></g><g id="_1-coat" data-name="1-coat"><path class="cls-7" d="M179.73,84.34c-2.64,5.14-3.47,11-4.24,16.73q-3.11,23-5.93,46.06l5.83.06" transform="translate(-156.48 -29)"/><path class="cls-7" d="M178.87,83.83c-3.55,7-4.11,15.16-5.14,22.87q-1.71,12.85-3.34,25.72-.93,7.35-1.83,14.71a1,1,0,0,0,1,1l5.83.06a1,1,0,0,0,0-2l-5.83-.06,1,1q1.53-12.51,3.15-25c1.07-8.26,2-16.55,3.31-24.78a41.82,41.82,0,0,1,3.57-12.51c.58-1.14-1.14-2.16-1.72-1Z" transform="translate(-156.48 -29)"/><path class="cls-7" d="M180,84.44a9.31,9.31,0,0,1,3.93-1.09,114.35,114.35,0,0,1,13.6-.78" transform="translate(-156.48 -29)"/><path class="cls-7" d="M180.46,85.31a9.27,9.27,0,0,1,3.77-1c1.46-.16,2.93-.3,4.41-.41,2.94-.23,5.89-.33,8.85-.33a1,1,0,0,0,0-2c-3.18,0-6.36.12-9.53.38-1.56.13-3.11.27-4.66.48a9.87,9.87,0,0,0-3.85,1.15,1,1,0,0,0,1,1.73Z" transform="translate(-156.48 -29)"/><path class="cls-7" d="M197.9,82.65l-3.81,25.52c-.3,2-.6,4-.73,6-.15,2.22-.09,4.46-.08,6.69A139.53,139.53,0,0,1,190.33,150" transform="translate(-156.48 -29)"/><path class="cls-7" d="M196.94,82.38c-1.32,8.82-2.66,17.63-4,26.45a85.09,85.09,0,0,0-.69,12.56c0,4.39-.21,8.79-.62,13.17a139.19,139.19,0,0,1-2.3,15.19c-.26,1.25,1.66,1.79,1.93.53a142.51,142.51,0,0,0,3-26c.08-4.31-.17-8.62.37-12.91s1.3-8.86,2-13.28l2.28-15.22c.19-1.26-1.74-1.8-1.93-.53Z" transform="translate(-156.48 -29)"/><path class="cls-7" d="M190.58,149.16a227.52,227.52,0,0,0-2.7,29.93" transform="translate(-156.48 -29)"/><path class="cls-7" d="M189.61,148.9a234.7,234.7,0,0,0-2.73,30.19c0,1.29,2,1.28,2,0a230.17,230.17,0,0,1,2.66-29.66c.2-1.26-1.73-1.8-1.93-.53Z" transform="translate(-156.48 -29)"/><path class="cls-7" d="M183.38,100.55" transform="translate(-156.48 -29)"/><path class="cls-7" d="M183.38,101.55a1,1,0,0,0,0-2,1,1,0,0,0,0,2Z" transform="translate(-156.48 -29)"/><path class="cls-7" d="M182,109.4a330.63,330.63,0,0,0-5.36,36.92c-.39,4.43-.69,8.86-1,13.29L174,184.2" transform="translate(-156.48 -29)"/><path class="cls-7" d="M181.07,109.14q-2.91,14.33-4.56,28.87c-1.12,9.8-1.7,19.64-2.36,29.47L173,184.2c-.09,1.29,1.91,1.28,2,0,1.31-19.46,2.16-39,5.1-58.33q1.23-8.15,2.88-16.2c.25-1.26-1.68-1.8-1.93-.53Z" transform="translate(-156.48 -29)"/><path class="cls-7" d="M174.11,184.22l0,1.55a64.88,64.88,0,0,1,8.61-3.38,12.43,12.43,0,0,0,3.49-1.44,3.81,3.81,0,0,0,1.78-3.16" transform="translate(-156.48 -29)"/><path class="cls-7" d="M173.11,184.22l0,1.55a1,1,0,0,0,1.51.86,68.93,68.93,0,0,1,8.93-3.45c2.55-.79,5.5-2.28,5.44-5.39a1,1,0,0,0-2,0c.05,2.65-3.5,3.29-5.42,3.92a68.46,68.46,0,0,0-8,3.19l1.5.87,0-1.55a1,1,0,0,0-2,0Z" transform="translate(-156.48 -29)"/><path class="cls-7" d="M181.81,91.23c5.48-.26,11.47,1,15.21-4,1.6-2.11-.56-5.4-3-5.27a34.39,34.39,0,0,0-7.44.73c-4.33,1.21-2.49,8,1.87,6.75A26.48,26.48,0,0,1,194,89l-3-5.26c-.55.72-3,.5-3.82.51-1.79,0-3.56-.12-5.35,0-4.49.21-4.51,7.21,0,7Z" transform="translate(-156.48 -29)"/><path class="cls-7" d="M179.08,90.42l-3.59,26.71c-1.18,8.81-2.7,17.64-2.6,26.55,0,3.3,3.69,4.28,6,2.48,2.95-2.33,4.37-5.6,5.23-9.18,1.22-5,2.32-10,3.77-15,3-10.52,3.77-20.44,3.31-31.36a3.52,3.52,0,0,0-6.88-.93,76.17,76.17,0,0,0-4,18.69c-.3,3.41,5.05,4.83,6.53,1.76l9-18.85-6.4-2.7A296.1,296.1,0,0,0,183.8,131h7c-.84-9.08,1.38-17.64,3.8-26.31l-6.87-.93c-.06,4-1.3,8-1.45,12.06a114.53,114.53,0,0,1-.65,12c-1.1,8-3.15,15.71-3.93,23.71-.39,3.9,6.16,4.81,6.87.93A138.37,138.37,0,0,1,193,134.83L186.27,133c-1.32,7.08-2.64,14.16-3.62,21.29-.46,3.32-.86,6.65-1.14,10-.17,2,.61,9.64-.88,11.08-3.25,3.14,1.71,8.09,5,4.95,1.91-1.85,2.3-3.9,2.45-6.46.25-4.15.32-8.29.75-12.43.91-8.92,2.59-17.75,4.24-26.56.83-4.39-5.34-6.19-6.75-1.86a138.37,138.37,0,0,0-4.45,17.58l6.88.93c.8-8.13,3-16,4-24.14.48-3.88.39-7.68.57-11.56.2-4.08,1.39-8,1.45-12.06s-5.82-4.73-6.88-.93c-2.58,9.22-4.94,18.52-4,28.17.42,4.45,6.73,4.55,7,0a283.31,283.31,0,0,1,5.44-40.5c.77-3.65-4.58-6.47-6.39-2.69l-9,18.85,6.52,1.77a68.88,68.88,0,0,1,3.73-16.83l-6.87-.93c.4,9.61.08,18.43-2.56,27.74-1.16,4.11-2.45,8.17-3.35,12.34-.82,3.82-1.07,7.92-4.35,10.5l6,2.47c-.1-8.91,1.42-17.74,2.6-26.55l3.59-26.71c.6-4.45-6.41-4.41-7,0Z" transform="translate(-156.48 -29)"/><path class="cls-7" d="M180.07,183.71c5.08-4.25,3.39-11.69,4.18-17.69q1.69-12.95,2.49-26c.28-4.5-6.72-4.48-7,0q-.66,10.62-1.89,21.18c-.37,3.1-.88,6.18-1.18,9.28-.27,2.86.78,6.31-1.55,8.26-3.45,2.9,1.52,7.83,4.95,5Z" transform="translate(-156.48 -29)"/><path class="cls-7" d="M177.56,145.75q-1.19,15.75-2.64,31.47c-.41,4.49,6.59,4.46,7,0q1.46-15.72,2.64-31.47c.34-4.49-6.66-4.47-7,0Z" transform="translate(-156.48 -29)"/><path class="cls-7" d="M176.1,186.85c1.7-.36,3.41-.76,5.12-1.06l.55-.09c.14,0,.15,0,0,0l.33,0c.38,0,.77,0,1.16,0a8.89,8.89,0,0,0,2.3-.22,4,4,0,0,0,2.27-1.65,6.2,6.2,0,0,0,.77-2.41,48.65,48.65,0,0,0,.54-5.52,2,2,0,0,0-2-2,2,2,0,0,0-2,2c0,.76-.07,1.52-.14,2.27s-.14,1.4-.23,2c0,.35-.1.7-.17,1,0,.19-.09.37-.14.55.06-.21.07-.09,0,0,.33-.34-.27.32.11-.13-.13.15-.17,0,0,0-.07,0-.62.11-.12.05a3.11,3.11,0,0,1-.43,0,30.22,30.22,0,0,0-4.44.44c-1.53.3-3.05.64-4.57,1a2,2,0,0,0-1.4,2.46,2.05,2.05,0,0,0,2.46,1.4Z" transform="translate(-156.48 -29)"/><path class="cls-7" d="M175.25,187.07c2.58,0,2.58-4,0-4s-2.58,4,0,4Z" transform="translate(-156.48 -29)"/><path class="cls-7" d="M175,187.22c2.57,0,2.58-4,0-4s-2.58,4,0,4Z" transform="translate(-156.48 -29)"/><path class="cls-7" d="M208,81.82a9.2,9.2,0,0,0,2.16,3.07,1,1,0,1,0,1.42-1.41,7.82,7.82,0,0,1-.91-1l.15.2a8.32,8.32,0,0,1-1.09-1.87,1,1,0,0,0-.6-.46,1.09,1.09,0,0,0-.77.1,1.06,1.06,0,0,0-.46.6l0,.27a1,1,0,0,0,.13.5Z" transform="translate(-156.48 -29)"/><path class="cls-7" d="M208.87,82.12l8.93.2a58.09,58.09,0,0,1,7.23.42,13.75,13.75,0,0,1,6.34,2.36c2.09,1.59,3.21,4.09,4.11,6.48,2.13,5.64,2.39,11.54,2.76,17.5l1.11,18.07,1.26,20.29.73-1a15.32,15.32,0,0,1-4.41.63l1,.73a33.27,33.27,0,0,1-.68-6.53,1,1,0,0,0-2,0,36.4,36.4,0,0,0,.75,7.06,1,1,0,0,0,1,.74,17.25,17.25,0,0,0,4.94-.7,1,1,0,0,0,.74-1l-2.39-38.61c-.37-6.13-.66-12.21-2.89-18a17.15,17.15,0,0,0-3.92-6.61,13.28,13.28,0,0,0-5.84-3,37.15,37.15,0,0,0-8.08-.85l-10.62-.24a1,1,0,0,0,0,2Z" transform="translate(-156.48 -29)"/><path class="cls-7" d="M235,142.59a231,231,0,0,1,2.54,40.28c0,1.29,2,1.28,2,0A234.19,234.19,0,0,0,237,142.06c-.18-1.27-2.11-.73-1.93.53Z" transform="translate(-156.48 -29)"/><path class="cls-7" d="M209.35,84c1.83,3.64,4.64,6.7,6.9,10.08a77.49,77.49,0,0,1,6.12,11c1.88,4.13,3.41,8.42,5,12.65s3.21,8.23,4.62,12.41a81.63,81.63,0,0,1,3.64,14.58c.19,1.27,2.11.73,1.93-.53-1.27-8.9-4.52-17.3-7.74-25.64-3.15-8.15-6.1-16.35-10.79-23.77-2.53-4-5.87-7.54-8-11.77-.58-1.15-2.31-.14-1.73,1Z" transform="translate(-156.48 -29)"/><path class="cls-7" d="M231.85,129.62l1.5,4.12a13.3,13.3,0,0,1,1,4.24,25.64,25.64,0,0,0,1.36,8.29c.45,1.2,2.38.68,1.93-.53a20.79,20.79,0,0,1-1.07-4.1c-.22-1.42-.14-2.83-.24-4.26a15.26,15.26,0,0,0-1.09-4.18l-1.49-4.11c-.43-1.21-2.37-.69-1.93.53Z" transform="translate(-156.48 -29)"/><path class="cls-7" d="M232.67,133.32c.58,4.08,1.1,8.15,1.33,12.27s.45,8.3.81,12.44c.72,8.31,1.77,16.6,2.81,24.87.15,1.26,2.16,1.28,2,0-1.06-8.44-2.13-16.88-2.85-25.36-.35-4.14-.56-8.28-.8-12.42s-.79-8.23-1.37-12.33c-.19-1.27-2.11-.73-1.93.53Z" transform="translate(-156.48 -29)"/><path class="cls-7" d="M212.46,85.65c4.81.12,9.69.23,14.35,1.6,2,.57,3.29,1.3,4,3.32.79,2.31,1.43,4.68,2.14,7a2,2,0,0,0,3.85-1.07L235.5,90.6c-.54-2.51-4.4-1.45-3.86,1.07l1.29,5.92,3.85-1.07c-.77-2.55-1.41-5.19-2.37-7.67A8.42,8.42,0,0,0,229,83.74c-5.24-1.87-11-1.95-16.52-2.09-2.58-.06-2.58,3.94,0,4Z" transform="translate(-156.48 -29)"/><path class="cls-7" d="M231.36,90.29c1.61,4.25,2.11,8.79,2.74,13.26s1.3,9.22,1.89,13.84,1.12,9.27,1.54,13.92c.21,2.28.39,4.57.54,6.85a38.65,38.65,0,0,1,.29,7.12l.28-1a1.27,1.27,0,0,1,1.12-.15,2.27,2.27,0,0,1-.16-.46c-.12-.58-.28-1.15-.41-1.72-.27-1.24-.52-2.49-.74-3.74-.43-2.49-.73-5-1-7.51-.45-5-.53-9.93-.82-14.89a99.65,99.65,0,0,0-2.13-15c-1-4.65-1.88-9.46-4.31-13.62l-3.45,2c3.65,5.68,4.17,12.62,5.37,19.09,1.38,7.45,3.18,14.85,3.06,22.47,0,2.58,4,2.58,4,0,.13-8-1.76-15.74-3.2-23.53-1.27-6.84-1.92-14-5.78-20-1.39-2.16-4.76-.23-3.45,2,1.88,3.24,2.63,6.92,3.43,10.53a104.9,104.9,0,0,1,2.17,12.2c.79,8.16.63,16.36,1.78,24.51.27,2,.61,3.92,1,5.86.35,1.6.59,3.58,1.85,4.77a3.27,3.27,0,0,0,4.6,0c1.29-1.4.72-4,.63-5.68-.44-8.34-1.33-16.65-2.39-24.94-.6-4.64-1.25-9.28-1.91-13.92-.63-4.47-1.14-9-2.74-13.26a2.05,2.05,0,0,0-2.46-1.4,2,2,0,0,0-1.4,2.46Z" transform="translate(-156.48 -29)"/><path class="cls-7" d="M212.25,85.62a193.12,193.12,0,0,1,20.92,44l3.65-1.54c-2-4.74-4-9.54-4.31-14.74-.16-2.72-.14-5.43-.42-8.13s-.72-5.45-1.25-8.14-1.11-5.35-1.77-8a5.35,5.35,0,0,0-1.47-2.83A9.66,9.66,0,0,0,224,84.64c-2-.64-5.2-2-7.14-.63-2.27,1.62-.72,4.44.18,6.35l8.16,17.29a2,2,0,0,0,3.66-.48c1.59-7.35,1.46-17.64-6.93-20.7-1.52-.56-2.78,1.09-2.46,2.46,1.12,4.91,3.53,9.37,5.7,13.88A87.7,87.7,0,0,1,230.46,118c.61,2.24,3.8,1.68,3.93-.53.2-3.31.24-6.62.14-9.93-.08-2.57-4.08-2.58-4,0,.1,3.31.06,6.62-.14,9.93l3.93-.53a92.21,92.21,0,0,0-5.3-15.35c-2.12-4.49-4.56-8.84-5.68-13.72l-2.46,2.46c6,2.18,5.19,10.93,4.14,15.78l3.65-.47-4.76-10.11-2.34-4.94-1.16-2.47a9.27,9.27,0,0,0-.64-1.35c-.56-.78.84-.13-.37.41l-1,.27a8,8,0,0,1,2.76.53,26,26,0,0,1,3.14,1c.7.29.75.51.92,1.22.27,1.09.51,2.19.76,3.29A94.91,94.91,0,0,1,228.16,106c.38,4.19.14,8.41,1,12.55a63.44,63.44,0,0,0,4.18,11.62c.9,2.07,4.36.59,3.66-1.54a196.77,196.77,0,0,0-21.33-45c-1.39-2.15-4.86-.15-3.45,2Z" transform="translate(-156.48 -29)"/><path class="cls-7" d="M237.19,133.46a18.48,18.48,0,0,1-1-4.14l-3.93.53a53.35,53.35,0,0,1,.92,6l3.73-1a10.45,10.45,0,0,1-.78-3.17c-.2-1.27-.37-2.53-.52-3.81q-.48-4-.7-8.09a2,2,0,0,0-2-2,2,2,0,0,0-2,2c.16,2.91.41,5.82.77,8.71s.49,5.85,1.77,8.38c.87,1.72,3.91,1,3.73-1a60.48,60.48,0,0,0-1.07-7.08c-.46-2.17-4.17-1.73-3.92.53a22.57,22.57,0,0,0,1.13,5.2,2.05,2.05,0,0,0,2.46,1.4,2,2,0,0,0,1.39-2.46Z" transform="translate(-156.48 -29)"/><path class="cls-7" d="M211.6,85.51c2.57,0,2.58-4,0-4s-2.58,4,0,4Z" transform="translate(-156.48 -29)"/><path class="cls-7" d="M220.6,87a1.5,1.5,0,0,0,0-3,1.5,1.5,0,0,0,0,3Z" transform="translate(-156.48 -29)"/></g><g id="_1-coat_details" data-name="1-coat details"><path class="cls-13" d="M210.27,165.7l1.57,20.07-5.66-.19C206.8,180.86,208.46,173.48,210.27,165.7Z" transform="translate(-156.48 -29)"/><path class="cls-14" d="M209.88,80.94c1.09.37,2.17.77,3.25,1.18s2.16.79,3.22,1.23l6.4,2.58.82.33-.49.79L221.29,90l-.57-1.24,5.3.75.65.09.09.68c.29,2.11.46,4.24.7,6.36s.47,4.24.64,6.36l.5,6.39c.11,2.13.27,4.26.32,6.4h-.1l-3-25.41.08.09-5.28-.83-.13,0,.07-.11,1.84-2.9,0,.12L209.84,81Z" transform="translate(-156.48 -29)"/><path class="cls-14" d="M196.91,83c-.61.81-1.23,1.61-1.86,2.39l-1.89,2.37-3.89,4.64-.07-1.06c1,.81,2,1.66,3,2.49l.71.58-.69.64-3.61,3.33.28-.79c.36,2,.58,4,.88,6s.57,4,.81,6l.66,6.06c.17,2,.38,4,.48,6.09h-.1l-3.69-24.08v0l0,0,3.66-3.27v.13l-3-2.55-.06-.05.06-.06,8.17-8.92Z" transform="translate(-156.48 -29)"/><path class="cls-6" d="M224.74,111.45a98.73,98.73,0,0,1,8.08,23.88l4.92,48.32a21.55,21.55,0,0,1-7.09.55l-1.23-46.52Z" transform="translate(-156.48 -29)"/><path class="cls-6" d="M194.28,117.41c.43-3.49-6.84,43.46-10.69,67.81a5.21,5.21,0,0,0,3.57,0c1.93-2.63,2.93-7.73,2.21-17.44,2.73-18.28,5-36.83,5-50.37C194.35,117.37,194.28,117.41,194.28,117.41Z" transform="translate(-156.48 -29)"/><path class="cls-15" d="M193.87,117.29a3.64,3.64,0,0,1,.48-1.56,4.72,4.72,0,0,1,.3,2.38" transform="translate(-156.48 -29)"/></g><g id="_1-shoes" data-name="1-shoes"><path class="cls-16" d="M196.25,224.7a3.36,3.36,0,0,1,1.65,3.14,7.44,7.44,0,0,1-1.2,3.5,26.89,26.89,0,0,0-1.82,3.27c-1,2.56-.69,5.44-1.08,8.17a3.12,3.12,0,0,1-.35,1.17,2.82,2.82,0,0,1-1.24,1,4.91,4.91,0,0,1-4.65,0,4.73,4.73,0,0,1-2-3.49,11.32,11.32,0,0,1,.46-4.12c.85-3.37,2.48-6.4,3.53-9.69A4.94,4.94,0,0,1,196.25,224.7Z" transform="translate(-156.48 -29)"/><path class="cls-17" d="M185.39,240.85a2.72,2.72,0,0,0-.14,1.06c0,.36-.07.72-.09,1.08a8.93,8.93,0,0,0,.1,1.86,3.84,3.84,0,0,0,1.19,2.39,4.67,4.67,0,0,0,3.27.86,6.37,6.37,0,0,0,5.2-2.55c1.4-2.21.59-5.11,1-7.69.34-2.1,1.48-4,2.21-6s1-4.4-.31-6.07" transform="translate(-156.48 -29)"/><path class="cls-18" d="M185.2,243.82a5.25,5.25,0,0,0,.58,2.06,2.1,2.1,0,0,0,.56.69,5,5,0,0,1,.78.47c.45.46,1.12-.23.71-.71a5.51,5.51,0,0,1-1-1.55l-.74.56a9,9,0,0,0,2.91,1.35,13.93,13.93,0,0,0,3.47-.14l-.13-1-2.79.85c-.74.24-1.77.67-2.47.1l-.22.84c.8-.13,1.6.27,2.41.2.51,0,.73-.9.13-1a13.89,13.89,0,0,1-1.43-.28l-.14,1a5.2,5.2,0,0,1,1.62.17l.13-1-1.24,0a.5.5,0,0,0-.25.93,4.24,4.24,0,0,0,4.79-.32c.45-.34-.06-.9-.48-.83a11.14,11.14,0,0,1-1.41.1l.35.85a5.5,5.5,0,0,1,2.25-.88.51.51,0,0,0-.13-1,17.12,17.12,0,0,0-2.15.14l.25.93a4.16,4.16,0,0,1,1.73-.63L193,245c-.38.4-1.37,1.34-.74,1.91s1.48-.14,1.92-.56-.22-1.12-.7-.71a1.67,1.67,0,0,1-.59.31l.64.48c0-.65.61-1,1-1.42a4.07,4.07,0,0,0,1-1.47c.23-.57-.61-.81-.91-.39a5.9,5.9,0,0,0-1.17,2.28.53.53,0,0,0,.23.57c1.45.69,1.61-1.81,1.62-2.67a.5.5,0,0,0-.93-.25c-.28.42-.58.82-.9,1.21l.84.22c-.07-.2.65-.83.8-1a1.78,1.78,0,0,0,.48-1.15,8.68,8.68,0,0,0-.26-1.33,5,5,0,0,1,0-1.64l-1-.13c-.1,1.22-.26,2.43-.42,3.64l1,.13c.18-1.34.42-2.67.71-4l-1-.13,0,1.71c0,.64,1,.64,1,0l0-1.71c0-.55-.86-.7-1-.13-.31,1.4-.56,2.82-.75,4.25-.07.55.91.69,1,.13.18-1.3.36-2.6.46-3.9,0-.56-.9-.7-1-.14a6.21,6.21,0,0,0,0,1.61c.06.52.28,1,.3,1.56s-.49.85-.76,1.19-.64.79-.48,1.31a.51.51,0,0,0,.84.22c.37-.46.73-.93,1.06-1.42l-.94-.25a6.08,6.08,0,0,1-.07,1c0,.2-.28.74,0,.85l.23.57a5.18,5.18,0,0,1,1.06-2l-.91-.39c-.48,1.19-2.1,1.74-2,3.16a.5.5,0,0,0,.63.48,2.83,2.83,0,0,0,1-.56l-.7-.71c-.15.14-.5.53-.74.43l.3.23c0,.29,0,.33.08.12l.18-.24a3.63,3.63,0,0,1,.41-.47c.27-.29.1-.91-.36-.86a5.26,5.26,0,0,0-2.23.77c-.38.24-.28,1,.25.93a17.12,17.12,0,0,1,2.15-.14l-.13-1a6.51,6.51,0,0,0-2.69,1.14c-.35.28-.05.86.35.86a13.28,13.28,0,0,0,1.67-.14l-.48-.84a3.2,3.2,0,0,1-3.59.16l-.25.94,1.24,0a.5.5,0,0,0,.13-1,5.94,5.94,0,0,0-1.88-.21.5.5,0,0,0-.13,1,11.62,11.62,0,0,0,1.43.27l.14-1c-.91.07-1.76-.31-2.68-.17a.5.5,0,0,0-.22.84,3,3,0,0,0,2.81.36c1.15-.33,2.28-.72,3.42-1.05.52-.15.45-1.06-.13-1a15,15,0,0,1-3.14.17,7.26,7.26,0,0,1-2.73-1.24c-.35-.19-.91.14-.74.57a7.3,7.3,0,0,0,1.22,2l.71-.71c-.33-.35-.85-.41-1.11-.82a3.84,3.84,0,0,1-.52-1.69c-.06-.63-1.06-.64-1,0Z" transform="translate(-156.48 -29)"/><path class="cls-18" d="M195.13,240.83a10.86,10.86,0,0,1,.21-3,5.44,5.44,0,0,1,.74-2.4l-.83-.48-.58,3.76h1c-.3-1.66.48-3.4,1.21-4.85.35-.71.84-1.34,1.19-2a10.63,10.63,0,0,0,.78-2.35.5.5,0,0,0-1-.26,14.9,14.9,0,0,1-1.66,3.16,6.31,6.31,0,0,0-1.16,3.49c.07.63,1.07.64,1,0a3.52,3.52,0,0,1,.46-1.84,11.65,11.65,0,0,1,.86-1.64,11.35,11.35,0,0,0,1.46-2.91l-1-.26a9.45,9.45,0,0,1-.92,2.56c-.42.76-.91,1.45-1.26,2.25a8.54,8.54,0,0,0-1,5,.51.51,0,0,0,1,0l.57-3.76c.07-.42-.49-.93-.84-.48a5.78,5.78,0,0,0-1,2.61,12.49,12.49,0,0,0-.28,3.5c.06.63,1.06.64,1,0Z" transform="translate(-156.48 -29)"/><path class="cls-18" d="M188.53,236.38a2.33,2.33,0,0,1,.92-.34,2,2,0,0,1,.63,0,1.45,1.45,0,0,1,.5.2c.19.09.38.24.78.41l0,.08a2.13,2.13,0,0,1-1.5.29,6.2,6.2,0,0,1-1.42-.53Z" transform="translate(-156.48 -29)"/><path class="cls-18" d="M189.33,234.36a3.67,3.67,0,0,0,.76-.17.86.86,0,0,1,.4-.05,1.11,1.11,0,0,1,.42.23,2.42,2.42,0,0,1,.59.65v.1a4.6,4.6,0,0,1-1.23,0,1.71,1.71,0,0,1-1-.7Z" transform="translate(-156.48 -29)"/><path class="cls-18" d="M190.45,232.56a4.58,4.58,0,0,1,.76-.39,1.1,1.1,0,0,1,.48-.08,1.07,1.07,0,0,1,.45.21,3.48,3.48,0,0,1,.63.57l0,.09a3.24,3.24,0,0,1-1.24.12,3.21,3.21,0,0,1-1.16-.44Z" transform="translate(-156.48 -29)"/><path class="cls-18" d="M191.2,231a1.31,1.31,0,0,1,.73-.48,1,1,0,0,1,.54,0,.57.57,0,0,1,.32.26,6.12,6.12,0,0,0,.46.6l0,.1a1.93,1.93,0,0,1-1.09,0,10.18,10.18,0,0,0-1-.36Z" transform="translate(-156.48 -29)"/><path class="cls-16" d="M222.07,224a3.38,3.38,0,0,0-1.65,3.14,7.71,7.71,0,0,0,1.2,3.5,24.94,24.94,0,0,1,1.82,3.27c1,2.56.69,5.44,1.09,8.17a3.16,3.16,0,0,0,.34,1.17,2.79,2.79,0,0,0,1.24,1,4.91,4.91,0,0,0,4.65,0,4.72,4.72,0,0,0,2-3.49,11.32,11.32,0,0,0-.45-4.12c-.86-3.37-2.49-6.4-3.53-9.69A4.94,4.94,0,0,0,222.07,224Z" transform="translate(-156.48 -29)"/><path class="cls-17" d="M232.93,240.15a2.53,2.53,0,0,1,.14,1.06c0,.36.07.72.09,1.08a8.8,8.8,0,0,1-.1,1.85,3.9,3.9,0,0,1-1.18,2.4,4.69,4.69,0,0,1-3.28.86,6.38,6.38,0,0,1-5.19-2.55c-1.41-2.21-.6-5.11-1-7.7-.34-2.09-1.49-4-2.22-5.94s-1-4.4.31-6.07" transform="translate(-156.48 -29)"/><path class="cls-18" d="M232.13,243.12a3.9,3.9,0,0,1-.53,1.69c-.25.41-.77.47-1.1.82l.71.7a7,7,0,0,0,1.21-2c.18-.42-.39-.76-.73-.56A7.31,7.31,0,0,1,229,245a14.4,14.4,0,0,1-3.14-.18c-.57-.07-.65.83-.13,1,1.15.33,2.28.72,3.43,1a3,3,0,0,0,2.81-.36.51.51,0,0,0-.23-.84c-.91-.14-1.76.24-2.67.17l.13,1a13.85,13.85,0,0,0,1.43-.27.51.51,0,0,0-.13-1,6.29,6.29,0,0,0-1.88.22.5.5,0,0,0,.13,1l1.25,0-.26-.93a3.2,3.2,0,0,1-3.58-.16l-.49.84a13.43,13.43,0,0,0,1.68.14c.4,0,.7-.58.35-.86a6.57,6.57,0,0,0-2.69-1.14l-.14,1a17,17,0,0,1,2.15.14c.53.06.64-.7.26-.93a5.12,5.12,0,0,0-2.24-.77c-.45-.05-.62.57-.35.85s.28.31.41.47l.17.25c.1.2.13.16.08-.12l.3-.23c-.24.1-.58-.29-.73-.43l-.71.7a2.75,2.75,0,0,0,1,.57.51.51,0,0,0,.63-.48c.08-1.42-1.54-2-2-3.16l-.92.38A5.45,5.45,0,0,1,224,245l.23-.57c.22-.11,0-.66,0-.86a6,6,0,0,1-.08-.94l-.93.25c.33.49.68,1,1.05,1.42A.51.51,0,0,0,225,244a1.31,1.31,0,0,0-.42-1.24c-.28-.36-.84-.77-.82-1.26s.24-1,.29-1.47a6.45,6.45,0,0,0,0-1.7c-.08-.55-1-.43-1,.13.1,1.31.27,2.61.45,3.91.08.55,1.06.43,1-.13-.19-1.43-.43-2.85-.74-4.26-.13-.56-1-.41-1,.14l0,1.71a.5.5,0,0,0,1,0l0-1.71-1,.13c.29,1.32.53,2.65.71,4l1-.13c-.17-1.21-.33-2.43-.42-3.65l-1,.14a5,5,0,0,1,0,1.55,9.87,9.87,0,0,0-.27,1.42,1.7,1.7,0,0,0,.43,1.09c.12.16.27.31.4.46s.49.48.45.61l.83-.22c-.32-.39-.62-.8-.9-1.22a.5.5,0,0,0-.93.26c0,.86.17,3.35,1.62,2.66a.49.49,0,0,0,.23-.56,6,6,0,0,0-1.16-2.28c-.3-.42-1.15-.18-.92.38a4.3,4.3,0,0,0,1,1.48c.41.4,1.07.77,1,1.42l.63-.48a1.55,1.55,0,0,1-.58-.31c-.49-.41-1.18.25-.71.7s1.32,1.12,1.93.57-.36-1.51-.74-1.91l-.36.85a4.11,4.11,0,0,1,1.73.63l.25-.93a17,17,0,0,0-2.15-.14.5.5,0,0,0-.13,1,5.66,5.66,0,0,1,2.25.89l.36-.85a10.87,10.87,0,0,1-1.41-.11c-.42-.06-.94.49-.49.84a4.26,4.26,0,0,0,4.8.32.51.51,0,0,0-.25-.94l-1.25,0,.14,1a5.46,5.46,0,0,1,1.61-.18l-.13-1a14.43,14.43,0,0,1-1.43.28c-.6.08-.4.94.13,1,.81.06,1.61-.33,2.41-.2l-.22-.84c-.7.57-1.73.14-2.48-.1-.92-.29-1.85-.58-2.78-.85l-.14,1a13,13,0,0,0,3.47.14,8.65,8.65,0,0,0,2.91-1.34l-.73-.56a5.81,5.81,0,0,1-1,1.55c-.42.48.25,1.17.71.7.21-.22.53-.28.77-.46a2.08,2.08,0,0,0,.56-.69,5.49,5.49,0,0,0,.59-2.06c.06-.64-.94-.63-1,0Z" transform="translate(-156.48 -29)"/><path class="cls-18" d="M224.19,240.13a12.49,12.49,0,0,0-.28-3.5,5.7,5.7,0,0,0-1-2.62c-.35-.44-.9.07-.84.49l.58,3.76a.5.5,0,0,0,1,0,8.53,8.53,0,0,0-1-5c-.34-.77-.81-1.43-1.22-2.17a9.3,9.3,0,0,1-1-2.64l-1,.26a11.71,11.71,0,0,0,1.47,2.91,12,12,0,0,1,.8,1.5,4,4,0,0,1,.52,2c-.08.63.93.63,1,0a6.47,6.47,0,0,0-1.16-3.49,14,14,0,0,1-1.66-3.16.5.5,0,0,0-1,.26,9.92,9.92,0,0,0,.75,2.25c.34.76.86,1.41,1.23,2.14.73,1.46,1.5,3.2,1.21,4.86h1l-.57-3.76-.84.48a5.41,5.41,0,0,1,.75,2.4,10.86,10.86,0,0,1,.2,3c-.06.64.95.63,1,0Z" transform="translate(-156.48 -29)"/><path class="cls-18" d="M229.83,235.77a1.65,1.65,0,0,1-.47.91,1.55,1.55,0,0,1-1.82.24,1.12,1.12,0,0,1-.62-.91l.05-.09a2,2,0,0,0,1.41.18,6,6,0,0,0,1.41-.42Z" transform="translate(-156.48 -29)"/><path class="cls-18" d="M229.08,233.72a1,1,0,0,1-.12,1,1.24,1.24,0,0,1-.74.48,1.13,1.13,0,0,1-.77-.1,1.42,1.42,0,0,1-.63-.67v-.1a4.67,4.67,0,0,0,1.19-.1,1.56,1.56,0,0,0,1-.56Z" transform="translate(-156.48 -29)"/><path class="cls-18" d="M227.92,231.94a1.21,1.21,0,0,1-1,1.23,1.31,1.31,0,0,1-.77-.15,1.22,1.22,0,0,1-.57-.76l0-.1a4.05,4.05,0,0,0,2.32-.3Z" transform="translate(-156.48 -29)"/><path class="cls-18" d="M227.14,230.4a2.6,2.6,0,0,1-.3.77.88.88,0,0,1-.47.35,1.1,1.1,0,0,1-.73-.05.94.94,0,0,1-.6-.72l0-.09a1.67,1.67,0,0,0,1-.1c.34-.08.68-.21,1-.26Z" transform="translate(-156.48 -29)"/></g><g id="_1-hair" data-name="1-hair"><path class="cls-19" d="M197.77,81.17a2.67,2.67,0,0,1-2.94,1.26A27.31,27.31,0,0,0,179,83.61c-.51.2-1.16.13-1.38.4a.39.39,0,0,1-.49.11c-2-1.13-3.53-.73-6.09,0a5.67,5.67,0,0,1-2.55.2c-3.89-.69-2.78-5.26-5-7.43-1-1-2.55-1.3-3.72-2.13-2.1-1.5-2.6-4.57-1.72-7A13.23,13.23,0,0,1,163,62a65.23,65.23,0,0,0,6.26-4.54,14,14,0,0,0,4.11-6.53c.63-2.32.72-5.06,2.6-6.55,1.39-1.11,3.34-1.13,5.12-1.26s3.79-.57,4.7-2.11.35-4.18,1.83-5.45a4.4,4.4,0,0,1,3.2-.64,42.46,42.46,0,0,1,6.46,1c1.22-3.41,2.34-7.67,8.58-6.15a2.61,2.61,0,0,1,1,.45c2.63,2.11,2,6.44,4.17,9.05A7.38,7.38,0,0,0,216,41.6a33,33,0,0,0,5.62-.12,3.32,3.32,0,0,1,1.54.16c1.13.51,1.36,2,1.4,3.23a57,57,0,0,0,.6,8.87,13.71,13.71,0,0,0,4,7.77c1.59,1.41,3.73,2.42,4.51,4.39.7,1.73.2,3.91,1.39,5.34a9.86,9.86,0,0,0,1.57,1.3c2.94,2.38,2.94,6.77,2.69,10.53a1.67,1.67,0,0,1-.32,1.08,1.46,1.46,0,0,1-.73.37c-2.89.72-5.67-1.25-8.42-2.38-3.58-1.47-7.55-1.56-11.41-1.63l-7.11-.13c-1.69,0-3.58-.15-4.76-1.32a2.09,2.09,0,0,1-.48-.78c-1.59-4.25-.32-7.38,1.8-10.31,2.65-3.66,3.28-5.34,4.51-11.69.49-2.49-.87-6.08-2.65-7.89s-4.8-2.51-6.92-1.12a3.1,3.1,0,0,1-1.12.59,2.67,2.67,0,0,1-1.25-.27,8.73,8.73,0,0,0-9.07,2.59c-2.32,2.56-2.08,6.11-1.82,9.55a3.88,3.88,0,0,0,.42,1.54,4.75,4.75,0,0,0,1.44,1.63,21.77,21.77,0,0,1,6.17,8.4C199,74.45,199.4,78.16,197.77,81.17Z" transform="translate(-156.48 -29)"/><path class="cls-20" d="M196.8,35.55A5.89,5.89,0,0,1,198,31.92a7.14,7.14,0,0,1,3.1-2.35,8.32,8.32,0,0,1,3.86-.52,3.54,3.54,0,0,1,1.81.77A7.55,7.55,0,0,1,208,31.28a4.72,4.72,0,0,0-3.12-1.78,8.55,8.55,0,0,0-3.6.61A7,7,0,0,0,196.8,35.55Z" transform="translate(-156.48 -29)"/><path class="cls-20" d="M211.17,38.54a2,2,0,0,0,1.15,1.72,5,5,0,0,0,2.08.44c1.51,0,3,0,4.55.08.77,0,1.5.09,2.29.1a4.11,4.11,0,0,1,2.39.74,3.55,3.55,0,0,1,1.25,2.12,5.42,5.42,0,0,1-.07,2.34,4.6,4.6,0,0,0-1.63-3.82,3.52,3.52,0,0,0-2-.43c-.73,0-1.52,0-2.28,0-1.54-.08-3.06-.13-4.6-.31a4.75,4.75,0,0,1-2.28-.8A2.14,2.14,0,0,1,211.17,38.54Z" transform="translate(-156.48 -29)"/><path class="cls-20" d="M227.7,60.31a5.6,5.6,0,0,0,2.79,1.79,10.18,10.18,0,0,1,3.23,1.58,4.7,4.7,0,0,1,1.5,3.4,9.77,9.77,0,0,1-.61,3.5,25.31,25.31,0,0,0-.16-3.42,4.64,4.64,0,0,0-1.39-2.73,13.87,13.87,0,0,0-2.89-1.61A4.51,4.51,0,0,1,227.7,60.31Z" transform="translate(-156.48 -29)"/><path class="cls-20" d="M238.51,74.6a35.93,35.93,0,0,0,1.12,3.58,12.84,12.84,0,0,1,.46,3.81c0,.32,0,.65-.07,1a3.12,3.12,0,0,1-.24,1.06,1.79,1.79,0,0,1-.88.84,2.92,2.92,0,0,1-1.05.25,4.23,4.23,0,0,1-2-.31,1.55,1.55,0,0,1-1-1.63A1.43,1.43,0,0,0,236,84.34a4.33,4.33,0,0,0,1.72,0c.56-.11,1-.33,1.16-.7a6.76,6.76,0,0,0,.17-1.67,19.09,19.09,0,0,0-.22-3.62A12.23,12.23,0,0,1,238.51,74.6Z" transform="translate(-156.48 -29)"/><path class="cls-20" d="M206.12,69.93c-.09.75-.24,1.49-.36,2.24a20,20,0,0,0-.36,2.19,5.06,5.06,0,0,0,1.25,3.83,4.74,4.74,0,0,0,3.6,1.71,5.65,5.65,0,0,0,4-1.53,5.06,5.06,0,0,1-3.93,2.31,5.12,5.12,0,0,1-2.41-.38,5.52,5.52,0,0,1-2-1.46,5.77,5.77,0,0,1-1.16-2.15,5.27,5.27,0,0,1-.1-2.43A25.7,25.7,0,0,1,206.12,69.93Z" transform="translate(-156.48 -29)"/><path class="cls-20" d="M196.35,35.42c-2.29.14-4.53.13-6.77.19a3.86,3.86,0,0,0-1.41.13,1.46,1.46,0,0,0-.57,1.09A2,2,0,0,0,189.36,39a2,2,0,0,1-1.7-.42,2.25,2.25,0,0,1-.84-1.71,2.19,2.19,0,0,1,.83-1.87,1.94,1.94,0,0,1,1-.3l.86,0A23.27,23.27,0,0,1,196.35,35.42Z" transform="translate(-156.48 -29)"/><path class="cls-20" d="M184.35,42a6.91,6.91,0,0,1-3.3,1.19,14.21,14.21,0,0,0-3.17,1,7.61,7.61,0,0,0-4.29,4.82,5.12,5.12,0,0,1,1-3.41,7.33,7.33,0,0,1,2.83-2.32,10.49,10.49,0,0,1,3.48-.91A12.06,12.06,0,0,0,184.35,42Z" transform="translate(-156.48 -29)"/><path class="cls-20" d="M169.84,56.51a28,28,0,0,0-4,2.91,45.84,45.84,0,0,0-3.58,3.39A46.25,46.25,0,0,0,159,66.45a6,6,0,0,0-1.47,4.23A5.66,5.66,0,0,0,160,74.35a17.74,17.74,0,0,0,2,1.31,6.2,6.2,0,0,0,2.08.91c.65.06,1.22-.51,1.72-1.14a14.63,14.63,0,0,0,1.37-2,14.44,14.44,0,0,0,1.05-2.21,3,3,0,0,0,.19-1.18,1,1,0,0,0-.61-1,1.05,1.05,0,0,1,.76.93,3.08,3.08,0,0,1-.09,1.28,14.21,14.21,0,0,1-.87,2.36,14.49,14.49,0,0,1-1.3,2.17,5.33,5.33,0,0,1-.87,1,2.09,2.09,0,0,1-1.36.53,6.1,6.1,0,0,1-2.5-.91,20.26,20.26,0,0,1-2.17-1.32,9.29,9.29,0,0,1-1.9-1.81,5.45,5.45,0,0,1-1-2.5,6.81,6.81,0,0,1,1.71-4.92,35.22,35.22,0,0,1,3.49-3.62A45.16,45.16,0,0,1,165.54,59,23.31,23.31,0,0,1,169.84,56.51Z" transform="translate(-156.48 -29)"/><path class="cls-20" d="M165.5,82.06a1.72,1.72,0,0,0,.71,1.35,2.27,2.27,0,0,0,1.36.5,12.1,12.1,0,0,0,3.14-.56,6.75,6.75,0,0,0,2.82-1.28,3.17,3.17,0,0,0,1.18-2.79,2.5,2.5,0,0,1,.22,1.73,3.73,3.73,0,0,1-.84,1.61,6.17,6.17,0,0,1-3.13,1.7,8.74,8.74,0,0,1-3.49.36,2.63,2.63,0,0,1-1.61-.93A1.72,1.72,0,0,1,165.5,82.06Z" transform="translate(-156.48 -29)"/><path class="cls-20" d="M178.82,83.8a14.58,14.58,0,0,0,2.4-1.08,11.63,11.63,0,0,0,2-1.51,9.89,9.89,0,0,0,1.61-1.92,4.06,4.06,0,0,0,.69-2.41,3.15,3.15,0,0,1,0,2.76,6.8,6.8,0,0,1-1.63,2.3A6.66,6.66,0,0,1,178.82,83.8Z" transform="translate(-156.48 -29)"/><path class="cls-20" d="M197.16,71.37a12.19,12.19,0,0,1,2,5,8.39,8.39,0,0,1,.06,2.79,4.54,4.54,0,0,1-1.41,2.55,6.14,6.14,0,0,1-2.52,1.36,5.06,5.06,0,0,1-2.86,0,3.33,3.33,0,0,1-2.12-1.91,5,5,0,0,1,0-2.72,5.48,5.48,0,0,0,.46,2.52,2.91,2.91,0,0,0,1.88,1.36,4.54,4.54,0,0,0,2.39-.17,5.32,5.32,0,0,0,2.1-1.18c1.26-1,1.41-2.79,1.26-4.52A17.66,17.66,0,0,0,197.16,71.37Z" transform="translate(-156.48 -29)"/><path class="cls-20" d="M218.92,80.5a1.71,1.71,0,0,0,1.4-.09,3.55,3.55,0,0,0,1.09-.92,13.74,13.74,0,0,1,2.17-2.14,12.42,12.42,0,0,1,2.65-1.59,6.1,6.1,0,0,1,3.16-.56,3.52,3.52,0,0,1,2.75,1.9,3.07,3.07,0,0,1-.51,3.26,3.26,3.26,0,0,1-1.43.87,5.05,5.05,0,0,1-1.56.26,1.92,1.92,0,0,1-1.47-.65,1.18,1.18,0,0,1-.08-1.47,1.1,1.1,0,0,0,.28,1.29,1.53,1.53,0,0,0,1.26.34,3.94,3.94,0,0,0,2.4-1.14,2.32,2.32,0,0,0,.26-2.36,2.63,2.63,0,0,0-2-1.31,5.26,5.26,0,0,0-2.67.44A14.24,14.24,0,0,0,224,78a17.18,17.18,0,0,0-2.28,1.86,3.84,3.84,0,0,1-1.33.81A1.71,1.71,0,0,1,218.92,80.5Z" transform="translate(-156.48 -29)"/><path class="cls-20" d="M195,41.06a4.82,4.82,0,0,0-3.76.48,4.37,4.37,0,0,0-2.21,2.87c-.14.61-.2,1.27-.33,1.94a5.06,5.06,0,0,1-.79,2,3.59,3.59,0,0,1-1.88,1.25,16,16,0,0,1-2,.4,7.21,7.21,0,0,0-5.53,4.56,12.27,12.27,0,0,0-.93,3.77,30.75,30.75,0,0,0-.13,4,23.24,23.24,0,0,1-.36-4,12.92,12.92,0,0,1,.7-4,8.74,8.74,0,0,1,2.29-3.47,7,7,0,0,1,3.8-1.79c1.32-.2,2.63-.34,3.31-1.25s.72-2.28,1.13-3.6a5,5,0,0,1,2.73-3.1A4.77,4.77,0,0,1,195,41.06Z" transform="translate(-156.48 -29)"/><path class="cls-20" d="M187.22,56.6a2.82,2.82,0,0,0-2.39,1.19,4.32,4.32,0,0,0-.92,2.49,16.67,16.67,0,0,0,.09,2.81,5.33,5.33,0,0,1,0,1.59,2.73,2.73,0,0,1-1,1.41c-1.61,1.21-3.41,2-4.14,3.61a3.69,3.69,0,0,0,0,2.6,4.55,4.55,0,0,1,.12,2.89,4.75,4.75,0,0,0-.59-2.74A6,6,0,0,1,178,71a3.32,3.32,0,0,1,.15-1.59A5.53,5.53,0,0,1,180,67c.79-.62,1.64-1.11,2.34-1.67a1.69,1.69,0,0,0,.68-.87,4.52,4.52,0,0,0,0-1.29,14.16,14.16,0,0,1,.09-3,4.65,4.65,0,0,1,1.33-2.72A2.91,2.91,0,0,1,187.22,56.6Z" transform="translate(-156.48 -29)"/><path class="cls-20" d="M190.34,68a2.13,2.13,0,0,0-1.8.46,2.73,2.73,0,0,0-.88,1.5,7.13,7.13,0,0,0-.16,1.93,13.89,13.89,0,0,1,0,2.13,10.5,10.5,0,0,1-.74-2,5,5,0,0,1,0-2.27,2.93,2.93,0,0,1,1.43-1.92A1.92,1.92,0,0,1,190.34,68Z" transform="translate(-156.48 -29)"/><path class="cls-20" d="M200.27,38.12a4.3,4.3,0,0,1,1.15-3.54,3.46,3.46,0,0,1,3.8-.71,3.38,3.38,0,0,1,1.49,1.43,8.4,8.4,0,0,1,.72,1.82,8.94,8.94,0,0,0,1.28,3.26,4.66,4.66,0,0,0,2.93,1.49c1.15.22,2.41.19,3.67.41a6.64,6.64,0,0,1,3.5,1.58,6,6,0,0,1,1.84,3.26A6.18,6.18,0,0,0,215.21,43c-1.2-.1-2.44,0-3.73-.24a5.51,5.51,0,0,1-3.55-1.8,9.41,9.41,0,0,1-1.41-3.63,4.14,4.14,0,0,0-1.65-2.82,2.87,2.87,0,0,0-3.13.39A4.3,4.3,0,0,0,200.27,38.12Z" transform="translate(-156.48 -29)"/><path class="cls-20" d="M202.62,44.06a18.31,18.31,0,0,1,5.67.25,11.38,11.38,0,0,1,2.8.85,4.71,4.71,0,0,1,1.27.89,5.56,5.56,0,0,1,.9,1.25,12.51,12.51,0,0,0,1.33,2.34,6.32,6.32,0,0,0,2.17,1.43,13.19,13.19,0,0,1,2.54,1.34,3.52,3.52,0,0,1,1.53,2.38,3.52,3.52,0,0,0-1.8-2,16.68,16.68,0,0,0-2.56-1,6.62,6.62,0,0,1-2.58-1.51,12.42,12.42,0,0,1-1.51-2.5c-.72-1.64-2.48-2.21-4.27-2.72A31.26,31.26,0,0,0,202.62,44.06Z" transform="translate(-156.48 -29)"/><path class="cls-20" d="M215.69,56.28a22,22,0,0,1,5.72,1.39,9.91,9.91,0,0,1,1.35.66,7,7,0,0,1,1.29.9,2.49,2.49,0,0,1,.74,1.59,10.79,10.79,0,0,1,0,1.52c-.12,1.76,1.15,3.32,2.65,4.4.77.56,1.6,1.06,2.41,1.6s1.63,1.07,2.42,1.65a52.38,52.38,0,0,1-5.26-2.6,7.83,7.83,0,0,1-2.28-2.06,4.85,4.85,0,0,1-.94-3c.07-1,.18-1.86-.39-2.4a10.51,10.51,0,0,0-2.29-1.53A43.75,43.75,0,0,0,215.69,56.28Z" transform="translate(-156.48 -29)"/><path class="cls-20" d="M212.76,66.09a1,1,0,0,1,1.13-.1,1.89,1.89,0,0,1,.87.85c.39.69.56,1.27,1,1.56a6.17,6.17,0,0,0,1.73.78,11.05,11.05,0,0,1,2,.87,11.83,11.83,0,0,1-2.15-.11,4.36,4.36,0,0,1-2.16-.75,2.58,2.58,0,0,1-.77-1c-.14-.37-.24-.71-.33-1a1.71,1.71,0,0,0-.44-.76A.91.91,0,0,0,212.76,66.09Z" transform="translate(-156.48 -29)"/></g></svg>