<svg xmlns="http://www.w3.org/2000/svg" viewBox="0 0 186.63 264.66"><defs><style>.cls-1{fill:#fdf7cb;}.cls-2{fill:none;stroke:#262626;stroke-miterlimit:10;}</style></defs><title>lightBulb</title><g id="Layer_2" data-name="Layer 2"><path class="cls-1" d="M53,239.9a69.34,69.34,0,0,1,48.78-73.16c8.27-2.52,16.94-3.47,25.56-4.07,18.57-1.31,41.22,3.47,56.44,14.64,11.55,8.48,18.95,21.33,26,33.8,8.32,14.65,10.39,28.11,10.26,44.7-.06,7.13-.19,14.4-2.6,21.1-4.64,12.87-16.71,21.32-28.17,28.78-10.73,7-21.7,13.92-33.92,17.73a74.13,74.13,0,0,1-63.14-9.55c-9.23-6.36-16.88-14.76-23.93-23.48C57.78,277.42,54.58,256.21,53,239.9Z" transform="translate(-52.64 -133.63)"/></g><g id="Layer_3" data-name="Layer 3"><path class="cls-2" d="M150.08,377.24l.06.09c1.19,1.9,2.58,3.82,4.63,4.73a11.51,11.51,0,0,0,5,.65c6.45-.21,12.63-1.69,18.91-3,6.57-1.37,13.24-2.15,19.78-3.68a12.71,12.71,0,0,0,5.6-2.35c3.52-3.07,2.83-8.63,1.84-13.19l-3.23-14.89c-.53-2.5-1.25-5.25-3.41-6.61a8.78,8.78,0,0,0-4.89-.94c-10.55.25-20.46,4.25-30.43,7.27a123.71,123.71,0,0,1-15.45,3.38c-5.68,1-4.48,4.28-3.28,9C146.91,364.55,146.33,371.2,150.08,377.24Z" transform="translate(-52.64 -133.63)"/><path class="cls-2" d="M145.73,360.6c8.79-.17,17.43-2.13,26-4.08l31.3-7.11" transform="translate(-52.64 -133.63)"/><path class="cls-2" d="M147.18,369.3a43.92,43.92,0,0,0,21.71,2,86.72,86.72,0,0,0,10.65-2.64l26.31-7.7" transform="translate(-52.64 -133.63)"/><path class="cls-2" d="M73.17,211.49a37.6,37.6,0,0,0-.89,22.07c1,3.81,2.78,7.64,6,9.95a3.28,3.28,0,0,0,2.1.79c1.94-.16,2.37-2.79,2.25-4.74q-1-15.51-1.94-31C80.06,198.77,74.88,206.67,73.17,211.49Z" transform="translate(-52.64 -133.63)"/><path class="cls-2" d="M93.9,183.89a5.45,5.45,0,0,1-.33,2.3c-.74,1.85-2.68,2.93-4.58,3.55-3.42,1.1-8.33,2-10.37-1.45a6.72,6.72,0,0,1,.75-7.66C83.63,175.48,93.49,176.07,93.9,183.89Z" transform="translate(-52.64 -133.63)"/><path class="cls-2" d="M169.39,344.12a234.94,234.94,0,0,0-22.47-72.95,22.29,22.29,0,0,0-3.37-5.37,11.84,11.84,0,0,0-4.86-3.17,6.46,6.46,0,0,0-4.6-.09c-3.34,1.43-3.5,6.56-1.09,9.28s6.27,3.57,9.87,4,7.26.6,10.2-1.29c4.29-2.75,5.09-8.59,5.29-13.68a15.36,15.36,0,0,0-.79-6.78c-.92-2.1-3.08-3.85-5.35-3.54-2.82.37-4.44,3.71-4,6.51s2.37,5.12,4.28,7.23a8.74,8.74,0,0,0,7.95,3.81,43.38,43.38,0,0,0,11.94-.78,23.44,23.44,0,0,0,16.51-16c.29-1,.47-2.27-.26-3a3.3,3.3,0,0,0-1.77-.79l-4.54-1c-1.83-.43-4.12-.7-5.26.8a5,5,0,0,0-.73,2.62l-1.84,20.76a128.67,128.67,0,0,0-.71,13.3,129.36,129.36,0,0,0,1.65,16.42l5.71,39.53" transform="translate(-52.64 -133.63)"/><path class="cls-2" d="M149.92,348.42c-1-6.79-2.12-13.72-5.39-19.77a61.33,61.33,0,0,0-7.4-10.12,72.53,72.53,0,0,0-7.31-7.86,74.26,74.26,0,0,0-6.16-4.71l-16.49-11.69C101.26,290.08,94.5,286.7,89,282a81,81,0,0,1-7.19-7.28c-4.39-4.83-8.46-9.11-11.5-14.87C61.41,243,55.73,220.2,61.93,201.47a116.69,116.69,0,0,1,11.73-25c6-9.58,15.3-17.55,24.32-24.24a76.22,76.22,0,0,1,25.18-12.28c10-2.74,19.6-6,30.11-5.8,24.42.55,49.68,8.93,65.72,27.36a68,68,0,0,1,6.67,9.07c10,16.2,13.36,35.74,13.09,54.55-.29,20.69-7.72,39.74-19.28,56.8-5.65,8.32-12.78,15.6-18.26,23.91a44.14,44.14,0,0,0-6.43,32.27" transform="translate(-52.64 -133.63)"/><path class="cls-2" d="M163.84,382.14a6.08,6.08,0,0,0,5,7.18c8.63,2,17.52-1.29,25.77-4.53,5.51-2.17,7.47-3.06,6.43-9.3" transform="translate(-52.64 -133.63)"/><path class="cls-2" d="M166.65,388.92a9.15,9.15,0,0,0,5.5,8.07c3.23,1.35,6.9.71,10.33.05l6-1.16a20.36,20.36,0,0,0,6.77-2.13,10.56,10.56,0,0,0,4.7-11.37" transform="translate(-52.64 -133.63)"/></g></svg>