<svg xmlns="http://www.w3.org/2000/svg" xmlns:xlink="http://www.w3.org/1999/xlink" viewBox="0 0 236.12 155.66"><defs><style>.cls-1{fill:#faebef;}.cls-2{fill:#fdf7cb;}.cls-3{fill:#fff;stroke:#fff;}.cls-10,.cls-3,.cls-5,.cls-8{stroke-linecap:round;stroke-linejoin:round;}.cls-10,.cls-3,.cls-5{stroke-width:0.5px;}.cls-4{fill:url(#linear-gradient);}.cls-5,.cls-7{fill:#262626;}.cls-5{stroke:#262626;}.cls-6{fill:#eb6fbd;}.cls-8,.cls-9{fill:#fcd9ac;}.cls-8{stroke:#fcd9ac;}.cls-10{fill:#f2c09e;stroke:#f2c09e;}</style><linearGradient id="linear-gradient" x1="80.39" y1="150.2" x2="124.55" y2="106.04" gradientUnits="userSpaceOnUse"><stop offset="0" stop-color="#eb6fbd"/><stop offset="0.99" stop-color="#fdf7cb"/></linearGradient></defs><title>noMyCourses</title><g id="bgr"><path class="cls-1" d="M29.61,252.65l225.78,1.9c10.59-25,20.53-39.15-10.64-64.62L179,131.4c-22.44-20.48-41.1-35.69-63.1-31.93C65.65,112.22,38.47,166.09,29.61,252.65Z" transform="translate(-29.61 -98.9)"/></g><g id="tshirt"><path class="cls-2" d="M225.7,231.79c.53-2.81,1.32-5.91,3.73-7.46,1.73-1.11,2.95-.76,3.74,1.22a6.77,6.77,0,0,0,1.47,2.81.63.63,0,0,0,.36.19.84.84,0,0,0,.62-.29,13,13,0,0,0,3.51-4.11c.79-1.78,1-3.87,1.49-5.75a69.38,69.38,0,0,0,2.67-16.69,30.18,30.18,0,0,0-1.77-12.34,31.82,31.82,0,0,0-7.25-10.08c-2.73-2.76-5.18-5.43-8.8-7a16.18,16.18,0,0,0-10.27-1.15,3.22,3.22,0,0,0-1.55.72c-.61.6-.33,1.45-.61,2.17a12.81,12.81,0,0,1-1.69,2.59,36.66,36.66,0,0,1-4,4.71,6.43,6.43,0,0,1-1.94,1.47,7.07,7.07,0,0,1-2.63.35c-2.73,0-5.58,0-8-1.28a8.63,8.63,0,0,1-4.54-7.51c0-1,.24-2.69-.68-3.38s-2.79-.31-3.72-.18a24,24,0,0,0-7.86,3.12l-10.59,5.81c-5.54,3-11.83,7.29-11.78,13.61.06,7,7.8,11.17,11.36,17.22a30.47,30.47,0,0,1,3,9.26c1.12,5.28,2.56,10.42,3.64,15.74l3.52,17.39a1.52,1.52,0,0,0,1.78,1.62c13.51-.07,27,0,40.57,0,1.82,0,3.19,0,3.64-1.92.37-1.52.05-3.17.2-4.72Q224.2,239.81,225.7,231.79Z" transform="translate(-29.61 -98.9)"/></g><g id="_1" data-name="1"><path class="cls-3" d="M62.63,132.63h79.25s1.5,55.17,0,56.31-78.11,1.14-79.25,0S62.63,132.63,62.63,132.63Z" transform="translate(-29.61 -98.9)"/></g><g id="_2" data-name="2"><path class="cls-4" d="M62.61,132.42h79.45s1.25-7.63.11-8.77-78.12-1.71-79.11,0S62.61,132.42,62.61,132.42Z" transform="translate(-29.61 -98.9)"/></g><g id="_3" data-name="3"><rect class="cls-5" x="38.77" y="28.27" width="2.85" height="1.85"/><rect class="cls-5" x="62.96" y="28.27" width="24.3" height="1.85"/><rect class="cls-5" x="104.36" y="28.27" width="3.21" height="1.85"/><circle class="cls-2" cx="45.42" cy="46.76" r="1.33"/><circle class="cls-2" cx="56.16" cy="46.76" r="1.33"/><circle class="cls-1" cx="67.28" cy="46.66" r="2.76"/><circle class="cls-5" cx="77.93" cy="46.72" r="2.82"/><circle class="cls-5" cx="88.71" cy="46.71" r="2.8"/><circle class="cls-5" cx="99.46" cy="46.91" r="2.63"/><circle class="cls-2" cx="45.61" cy="57.4" r="2.57"/><circle class="cls-5" cx="55.97" cy="57.4" r="2.57"/><circle class="cls-6" cx="67.28" cy="57.59" r="2.76"/><circle class="cls-6" cx="77.93" cy="57.65" r="2.82"/><circle class="cls-1" cx="88.9" cy="57.83" r="2.99"/><circle class="cls-1" cx="99.68" cy="57.68" r="2.85"/><circle class="cls-2" cx="45.42" cy="68.33" r="2.76"/><circle class="cls-6" cx="56.16" cy="68.33" r="2.76"/><circle class="cls-6" cx="67.28" cy="68.33" r="2.76"/><circle class="cls-5" cx="77.71" cy="68.56" r="2.6"/><circle class="cls-1" cx="88.52" cy="68.56" r="2.99"/><circle class="cls-6" cx="99.68" cy="68.42" r="2.85"/><circle class="cls-2" cx="45.61" cy="78.78" r="2.57"/><circle class="cls-2" cx="56.35" cy="78.78" r="2.57"/><circle class="cls-5" cx="67.28" cy="78.97" r="2.76"/><circle class="cls-2" cx="77.69" cy="79.78" r="1.95"/></g><g id="laptop"><path class="cls-7" d="M123.49,213.88h62c1.35-1.3,1.29-2.68,0-4.13H169.82l.14-2.57s-10.54-32.12-12.68-32.5-46.19-.85-46.9,0,11.69,33.21,11.69,33.21l1.57,1.43C122.69,211.18,122.72,212.67,123.49,213.88Z" transform="translate(-29.61 -98.9)"/></g><g id="skin"><path class="cls-8" d="M237.67,226.92c1.2-9.72-5.28-12.8-11.26-16.32l-33.92-17.32a22.71,22.71,0,0,0-6.13-6.55h-2.07l-2.28-.56-2.21,2.27-8.05,3.35c-.36.35-.23.58,0,.78l6.27-1.64,7.2,3.85,4.2.21c9.33,17.82,19.62,33.79,36.35,37.56a44.09,44.09,0,0,0,8.41.43A14.08,14.08,0,0,0,237.67,226.92Z" transform="translate(-29.61 -98.9)"/><path class="cls-8" d="M190.49,171.55c-.57,16.39,20.95,13.82,22.81,0-4.31-.49-7.2-6-9.84-12.4l3.71-5.85.57-3.7,1.42-12.26c-.42-6.17-1.71-10.92-5.27-12a5.36,5.36,0,0,1-5.56,1.71l-.29-3.42c-2.8-.73-3.24,3.3-3.42,7.84-1.89,7.52-7,9.68-13.11,10.12,3.23,9.59,7,16.17,11.26,19.25C193.93,166.78,192.8,168.26,190.49,171.55Z" transform="translate(-29.61 -98.9)"/><path class="cls-9" d="M125.87,222.43c1.07-5.59,16.5-6.55,34.21-7.79l4-4c-.67,1.65-1.39,2.74-.38,3.33,2.25,1.11,4.54.76,6.84-.95a11.09,11.09,0,0,1-4.84,3.8l-6.84-.1c-7,4.33-14.34,9-18.35,10.08a23.15,23.15,0,0,1-8.83,0A9.14,9.14,0,0,1,125.87,222.43Z" transform="translate(-29.61 -98.9)"/></g><g id="skin_shades" data-name="skin shades"><path class="cls-10" d="M189.17,195.66c10.44,20.93,22.47,33.24,34.2,36.47,7.76,2.32,10.9,1.91,11.52.57C221.22,230.16,204,213.93,189.17,195.66Z" transform="translate(-29.61 -98.9)"/><path class="cls-10" d="M125.87,222.43c-1.63-2.59-2.12-5.24.67-7.71h33.85a21.08,21.08,0,0,1,3.68-4.07c-1.15,1.69-1.85,3.16-.47,3.61a7.08,7.08,0,0,0,7.22-1.14L168,215.66C159.63,214.1,125.73,215.83,125.87,222.43Z" transform="translate(-29.61 -98.9)"/><path class="cls-10" d="M209.79,137.81c2.86-1.47,3.7,0,3.43,4.73a10.09,10.09,0,0,1-4.63,6.7Z" transform="translate(-29.61 -98.9)"/><path class="cls-10" d="M181.72,142.54" transform="translate(-29.61 -98.9)"/><path class="cls-10" d="M192.49,161.5c4.13,1.24,10.24,1.45,11.9-2.64.41,1.52.45,2,.71,3C199.9,166.91,196.69,166.63,192.49,161.5Z" transform="translate(-29.61 -98.9)"/><path class="cls-10" d="M179,143.25a2.93,2.93,0,0,0,0,1.25,3.86,3.86,0,0,0,.45,1.09,14.24,14.24,0,0,0,4.7,4.56,8.14,8.14,0,0,0-.79-3.33,7.48,7.48,0,0,1-1.85-5.57C181.51,138.83,179.23,142.26,179,143.25Z" transform="translate(-29.61 -98.9)"/></g><g id="Layer_8" data-name="Layer 8"><path class="cls-5" d="M180.85,142a16.48,16.48,0,0,1,3.91-1.3c3.07-.84,6.18-2.38,7.72-5.17,1.9-3.44,1-8.06,3.39-11.19.43-.57,1.27-1.09,1.81-.62s.12,1.43.32,2.15c.28,1,1.67,1.19,2.65.84s1.87-1,2.91-1.08c1.91-.05,3.11,2,3.71,3.83a36,36,0,0,1,1.55,6.56c.07.5.17,1.08.62,1.32a1.57,1.57,0,0,0,.86.1c1-.06,2.35-.46,2.66.78a.26.26,0,0,1-.08-.31,1.31,1.31,0,0,0,.19.89c.31.81.14,1.73.44,2.54.57,1.57,2.72-.49,3.36-1.18a7.09,7.09,0,0,0,1.82-3.85,5.06,5.06,0,0,0-1-3.89c-.69-.83-1.74-1.38-2.23-2.36-.83-1.66.36-3.58,1.52-5s2.42-3.28,1.74-5a3.63,3.63,0,0,0-2.73-2,13.88,13.88,0,0,0-3.53-.06c-2.39.11-5.1-.22-6.57-2.1-.92-1.18-1.15-2.74-1.63-4.16s-1.43-2.88-2.91-3.12a4.38,4.38,0,0,0-2.39.48c-2.3,1-4.37,2.42-6.65,3.46a21,21,0,0,1-11.82,1.64,4.35,4.35,0,0,0-2.15,0c-1.41.5-1.78,2.29-1.84,3.78a37.05,37.05,0,0,0,.36,6.82,3,3,0,0,1,0,1.51,3.45,3.45,0,0,1-1.51,1.41,9.45,9.45,0,0,0-.16,15.69c.69.48,2.24,1.6,3.13,1.31S179.84,142.59,180.85,142Z" transform="translate(-29.61 -98.9)"/></g></svg>