<svg width="21" height="22" viewBox="0 0 21 22" fill="none" xmlns="http://www.w3.org/2000/svg">
<circle cx="10.3137" cy="10.623" r="10" fill="#A02515"/>
<path d="M9.07 5.22305H11.586L11.161 13.179H9.478L9.07 5.22305ZM10.328 17.242C9.93133 17.242 9.60266 17.1174 9.342 16.868C9.08133 16.6074 8.951 16.29 8.951 15.916C8.951 15.542 9.08133 15.2304 9.342 14.981C9.60266 14.7317 9.93133 14.607 10.328 14.607C10.7133 14.607 11.0307 14.7317 11.28 14.981C11.5407 15.2304 11.671 15.542 11.671 15.916C11.671 16.29 11.5407 16.6074 11.28 16.868C11.0307 17.1174 10.7133 17.242 10.328 17.242Z" fill="white"/>
</svg>
