<svg data-name="Layer 1" xmlns="http://www.w3.org/2000/svg" viewBox="0 0 254.23 254.7"><path d="M0 41.49v53.55a29.75 29.75 0 0029.75 29.76h54.09a29.76 29.76 0 0029.75-29l1.28-53.56A29.75 29.75 0 0085.13 11.7H29.75A29.75 29.75 0 000 41.49zm0 129.9v53.56a29.75 29.75 0 0029.75 29.75h54.09a29.76 29.76 0 0029.75-29l1.28-53.55a29.75 29.75 0 00-29.74-30.47H29.75A29.75 29.75 0 000 171.39zm129.43 0v53.56a29.75 29.75 0 0029.75 29.75h54.09a29.76 29.76 0 0029.73-29l1.28-53.55a29.76 29.76 0 00-29.75-30.47h-55.35a29.75 29.75 0 00-29.75 29.71zm-2.11-81.44l37.87 37.87a29.74 29.74 0 0042.07 0l38.25-38.25a29.77 29.77 0 00.5-41.57l-37-38.77a29.75 29.75 0 00-42.58-.51l-39.15 39.15a29.76 29.76 0 00.04 42.08z" fill="#fff"/></svg>