<svg data-name="Layer 2" xmlns="http://www.w3.org/2000/svg" viewBox="0 0 244.31 244.19"><path d="M0 30.99v53.6a29.75 29.75 0 0029.75 29.7h54.09a29.75 29.75 0 0029.74-29l1.29-53.55A29.76 29.76 0 0085.12 1.27H29.75A29.75 29.75 0 000 30.99zm0 129.9v53.55a29.75 29.75 0 0029.75 29.76h54.09a29.76 29.76 0 0029.74-29.05l1.29-53.56a29.76 29.76 0 00-29.75-30.46H29.75A29.75 29.75 0 000 160.89zm129.46 0v53.55a29.75 29.75 0 0029.76 29.76h54.09a29.76 29.76 0 0029.74-29.05l1.24-53.56a29.75 29.75 0 00-29.74-30.46h-55.37a29.75 29.75 0 00-29.72 29.76zm30.49-46.01h53.56a29.75 29.75 0 0029.75-29.75V31.04a29.76 29.76 0 00-29-29.75L160.71.01a29.76 29.76 0 00-30.47 29.75v55.37a29.75 29.75 0 0029.71 29.75z" fill="#fff"/></svg>