<svg id="Layer_3" data-name="Layer 3" xmlns="http://www.w3.org/2000/svg" viewBox="0 0 247.69 284"><defs><style>.cls-3{stroke-miterlimit:10;fill:#fff;stroke:#fff;stroke-width:.73px}</style></defs><path d="M2.36 266.12c.13 2.37.88 4.63 3.25 4.63l26.37-.57c.15-21.53 24.24-19.39 24.85-.86h131.14c2.23-21.14 24.26-15.28 25.85 0h22.65a4.47 4.47 0 004.47-4.33c4.13-29.67 6.83-127.13 6.28-211.46.26-28.62-19.53-51.52-41.26-51-48.62-2.87-99-2.69-150.87 0C41.26.9 4.19 11.85 2.52 37.73c-4.6 36.26-.92 109.1 3.35 179.71a4.51 4.51 0 01-1.15 3.07l-2.28 2.53a4.5 4.5 0 00-1.11 2.26c-1.26 6.94.19 25.42 1.03 40.82z" stroke-width=".79" stroke-miterlimit="10" fill="#eb6fbd" stroke="#eb6fbd"/><path d="M32.98 270.08c1 21.77 26 13.88 24 0-.34-16.25-24-18.24-24 0z" stroke="#fff" fill="#fff" stroke-width=".79" stroke-miterlimit="10"/><path class="cls-3" d="M829.93 352.64c.93 20.19 24.09 12.87 22.3 0-.36-15.07-22.3-16.92-22.3 0z" transform="translate(-639.87 -82.54)"/><path class="cls-3" d="M2.48 144.46h244.03v6.84H2.48z"/><path class="cls-3" d="M651.3 170.07l43.09.94a4.72 4.72 0 004.83-4.86l-1.62-57.56a4.72 4.72 0 00-5-4.59c-26.79 1.37-52-5.33-46 61.78a4.72 4.72 0 004.7 4.29zm57.09-66.23l42.3-1.74a3.74 3.74 0 013.9 3.64l1.51 61.44a3.74 3.74 0 01-3.74 3.83h-42a3.74 3.74 0 01-3.74-3.62l-1.82-59.69a3.75 3.75 0 013.59-3.86zm58.95-1.9h36.28a4.75 4.75 0 014.75 4.65l.9 40.2.41 18.33a4.76 4.76 0 01-4.76 4.86h-36.11a4.75 4.75 0 01-4.75-4.64l-1.48-58.53a4.76 4.76 0 014.76-4.87zM817.12 167L816 107.16a4.05 4.05 0 013.84-4.14c28.35-1.54 64.38-6.42 56.75 64.36a4.07 4.07 0 01-4 3.63h-51.41a4.06 4.06 0 01-4.06-4.01zm-169.07 72c51.18-4 41.34 14.82 40.48 54.16a83.6 83.6 0 00-38.53 6.25zm62.07 3.26l36.17-.88a5.44 5.44 0 015.57 5.11l2.28 36.87a5.45 5.45 0 01-5.44 5.78h-38.45a5.45 5.45 0 01-5.45-5.45v-36a5.45 5.45 0 015.32-5.43zm53.94-1.01h41.67a4.06 4.06 0 014.06 3.94L811 286.1a4.06 4.06 0 01-4.06 4.18h-42.88a4.06 4.06 0 01-4.06-4.06v-40.91a4.06 4.06 0 014.06-4.06z" transform="translate(-639.87 -82.54)"/><rect class="cls-3" x="177.8" y="158.71" width="55.88" height="47.89" rx="5.88"/><path d="M12.84 136.75l.26-13.1a8.63 8.63 0 014.92-.85 4.14 4.14 0 012.2.68c1.5 1.11 1.35 3.59.08 4.95a6.75 6.75 0 01-5.17 1.73c1.51.3 3.15-.52 4.59.05a4.22 4.22 0 012.22 3.11 4.32 4.32 0 01-.17 3.15 3.53 3.53 0 01-2.24 1.57 10.1 10.1 0 01-2.8.21c-1.51-.02-3.07-.21-3.89-1.5zm12.1-12.72a26 26 0 00.24 6c.3 1.91.93 4 2.55 5a4.16 4.16 0 005.49-1.14 8 8 0 00.89-4.51v-5.56m12.63 2.77c-.05-1.73-1.87-2.91-3.59-3.14a5.61 5.61 0 00-3.68.71 4 4 0 00-1.92 3.13 3.13 3.13 0 001.94 3c1.27.44 2.72-.09 4 .3a3.31 3.31 0 012 4.18 4.15 4.15 0 01-4.1 2.54 5.56 5.56 0 01-4.22-2.63" fill="none" stroke-linecap="round" stroke-linejoin="round" stroke-width="2" stroke="#fff"/><path fill="#262626" stroke="#262626" stroke-width="2" stroke-linejoin="round" stroke-linecap="round" d="M195.91 120.65h33.21v16.53h-33.21z"/><path d="M200.13 124.27a2.57 2.57 0 012.34-.4 1.83 1.83 0 01.95 1.64 3.77 3.77 0 01-.55 1.89 2.6 2.6 0 01-.73.91 1.1 1.1 0 01-1.1.15c.66.18 1.46-.19 2 .22a1.62 1.62 0 01.52 1.1 5 5 0 01-.05 2.33 2.12 2.12 0 01-1.66 1.5 1.66 1.66 0 01-1.73-1.26" stroke="#f9e547" stroke-width="2" stroke-linejoin="round" stroke-linecap="round" fill="none"/><path d="M211.31 126.62a6.2 6.2 0 00-.06-1.49 1.81 1.81 0 00-.74-1.2 2 2 0 00-1.36-.17 1.49 1.49 0 00-.7.23 1.87 1.87 0 00-.54.94 19 19 0 00-.95 6.05 3.85 3.85 0 00.13 1.08 3.66 3.66 0 00.76 1.2 2.22 2.22 0 001 .83 1.61 1.61 0 001.53-.65 3.84 3.84 0 00.92-2.13 1.22 1.22 0 00-.05-.63 1 1 0 00-.33-.41 2.6 2.6 0 00-2.9-.33" stroke-width="1.78" stroke="#f9e547" stroke-linejoin="round" stroke-linecap="round" fill="none"/><path d="M82.61 220.02a6 6 0 014.58 2.87 8.22 8.22 0 011 5.41 7 7 0 01-3 5.08 6.82 6.82 0 01-3.88.9c-8.12-.36-6.43-14.73 1.3-14.26z" stroke-width="1.78" stroke-linejoin="round" stroke-linecap="round" fill="none" stroke="#fff"/><path d="M72.51 226.97l18.72-.51" stroke-width="4" stroke-linejoin="round" fill="none" stroke="#fff"/></svg>