<svg data-name="Layer 4" xmlns="http://www.w3.org/2000/svg" viewBox="0 0 223.83 92.8"><path d="M57.68 79.52h105.48c4.37-27.08 24.52-21.57 33.35-4.84h24.23a10.21 10.21 0 001.37-9.93.91.91 0 00-1.74.14c-.45 2.26-1.16 3.49-2.19 3.52l-1.43-16.25-4.56-7.7-2.85-2.57c-.84-3.68-2.2-6.85-5.15-8.44a4.75 4.75 0 01-2.31-2.73c-4.87-15.71-13-28.36-34.16-29-30.49-.38-68.62-2-73 2l-9.09-1.48a2.64 2.64 0 00-3 2.7l.16 4.2c-4.24.47-11.3 14-17.67 24.23l-46.53 2.5c-2.48 2-4.08 4-3.42 6a22.1 22.1 0 01-10 1.14c-3 4.23-3.07 8.41 0 12.55q4 8.5 3.42 14.54c-2 .89-3.64-.19-5-3.4a1.1 1.1 0 00-2 0 11.72 11.72 0 00-.41 6.28c3 6.12 7.91 6.39 13.68 4 2-2.23 2.51-4.43-.85-6.56 11.58-14.6 31.12-21.63 43.67 9.1z" stroke-width="2" stroke-linejoin="round" fill="#fdf7cb" stroke="#fdf7cb"/><path d="M20.5 69.09a15.25 15.25 0 00.81 10.34c7.25 17 26.93 11.63 27.81-4.41.13-17.99-24.21-20.37-28.62-5.93zm144.09 1.9a15.13 15.13 0 00.81 10.34c7.24 17 26.93 11.63 27.81-4.41.1-17.99-24.24-20.4-28.62-5.93z" stroke-width="2" stroke-linejoin="round" fill="#fff" stroke="#fff"/><path d="M5.03 43.09c54.46 0 106 1.9 138.58 7.17a4.25 4.25 0 003.94-2.15l1.32-2.31a5.39 5.39 0 014.68-2.71h57.12" stroke-linecap="round" fill="none" stroke="#fff" stroke-linejoin="round"/><path d="M80.18 34.05l30 .78a3.44 3.44 0 003.52-3.44v-17a3.77 3.77 0 00-3.46-3.77c-19.26-1.51-30.73 4.65-33.19 19.69a3.22 3.22 0 003.13 3.74zm46.15-23.65h22a5 5 0 015 5v14.55a5 5 0 01-4.89 5l-22 .45a5 5 0 01-5.09-5v-15a5 5 0 014.98-5zm33.9 2.83l.73 18a2.69 2.69 0 002.68 2.57h23.39a2.68 2.68 0 002.63-3.16c-1.9-10.58-6.87-19.47-26.68-20.17a2.67 2.67 0 00-2.75 2.76z" stroke-linecap="round" stroke-linejoin="round" fill="#fff" stroke="#fff"/></svg>