<svg data-name="Layer 1" xmlns="http://www.w3.org/2000/svg" viewBox="0 0 213.22 200.84"><path d="M26.41 34.95C44.05 8.37 76.23 1.01 113.58.46a79.56 79.56 0 018.86.37c72.56 7.17 93.94 41.2 89.86 79-10.1 125.15-159 139.83-203 72.88A53.33 53.33 0 01.6 125.2C-.42 96.74 4.54 67.8 26.41 34.95z" stroke="#f9e547" stroke-width=".9" fill="none" stroke-miterlimit="10"/><path d="M43.99 36.3c15.71-25.62 44-33 76.82-33.81a63.16 63.16 0 017.78.27c63.65 6.25 82.12 38.67 78.21 74.92-10 120.05-140.83 135.4-178.89 71.62a53.71 53.71 0 01-7.4-26.29c-.62-27.25 3.98-55.03 23.48-86.71z" stroke="#eb6fbd" stroke-width=".83" fill="none" stroke-miterlimit="10"/><path d="M32.82 50.73c16.27-25.43 45.8-32.6 80-33.28a68.73 68.73 0 018.12.32c66.48 6.55 85.92 38.94 82 75-9.72 119.5-146.25 134.12-186.31 70.4a51.89 51.89 0 01-7.88-26.21c-.77-27.15 3.89-54.78 24.07-86.23z" stroke="#262626" stroke-width=".84" fill="none" stroke-miterlimit="10"/></svg>