<svg xmlns="http://www.w3.org/2000/svg" viewBox="0 0 252.08 178.06"><defs><style>.cls-2{fill:#262626}.cls-4{fill:#fcd9ac}.cls-9{letter-spacing:0}</style></defs><path d="M21.92 182.2q2.2-12.55 4.53-25.08c1.67-9 3.58-18.46 9.37-25.59 8.59-10.58 22.7-13 35-16.6 15-4.46 30.23-5.62 45.65-7.85 14.32-2.07 28.3-9 42-14.15 25.6-9.66 57.49 3.7 73.85 24.32a45.19 45.19 0 017.1 12c4.81 12.85 3.13 27.27 7.37 40.44 4.92 15.26 13.19 28.95 18.44 44 1.49 4.28 3.12 7.46 1.91 11.89a23.36 23.36 0 01-6.14 10.35c-3.36 3.36-8.11 7.32-12.65 8.8-4.83 1.58-10.77 1.36-15.8 2-20.72 2.62-41.7 2-62.52 1.34l-88.64-2.78L37 243.9c-7.18-.22-16.32 2.09-19.2-7a20.64 20.64 0 01-.68-3.67c-.53-4.24-1.79-9-1.66-13.26.12-3.94 1.39-8.22 2-12.15q2.21-12.82 4.46-25.62z" transform="translate(-15.48 -70.58)" fill="#faebef" id="Layer_2" data-name="Layer 2"/><g id="Layer_5" data-name="Layer 5"><path class="cls-2" d="M173.42 160.81a8.54 8.54 0 002.67 0c1.26-.24 2.43-.85 3.69-1.15a8 8 0 019 4.65c.7 1.76.74 3.7 1.18 5.54 1.28 5.3 5.82 9.3 7.3 14.54.58 2 .68 4.21 1.49 6.17s2.3 3.55 3.36 5.38c2.72 4.66 2.57 10.38 2.35 15.77a36 36 0 00-6.65-8.63 15.38 15.38 0 00-4.08-3c-2.26-1-5.61 0-8-.42-1.9-.34-2.6-2.08-4.52-2.45a15.55 15.55 0 00-11.93 2.58 25.5 25.5 0 01-2.7 1.93c-1.25.68-2.48.5-3.76.89s-4.12 3.54-4.08 3.76c.11.55-.46 1-1 1.18a11.26 11.26 0 01-5.07.22 9.91 9.91 0 01-4.35-2.24 13.17 13.17 0 01-4.23-4.37c-1.47-3-.39-6.62-.56-10-.11-2.37-.86-4.66-1.15-7s0-5 1.53-6.73c.66-.75 1.52-1.31 2.18-2.06 1.2-1.36 1.66-3.26 2.9-4.58 2.34-2.52 6.65-2.2 9.11-4.61 1.71-1.67 2.2-4.37 4.1-5.82s4.56-1.2 6.86-.61a41.28 41.28 0 004.36 1.06z" transform="translate(-15.48 -70.58)"/><path d="M169.69 199.66c-4.46 1.85-9 3.74-12.74 6.79a6.05 6.05 0 00-1.62 1.8 6.78 6.78 0 00-.57 2.82c-.11 1.87-.55 3.64-.72 5.5s-.44 3.23.85 4.68a13.48 13.48 0 002.26 1.86c3.56 2.6 3.82 6.1 5 9.94q1.6 5.12 3.48 10.14c.49 1.3.94 3.87 1.94 4.84 2.29.58 20.79.61 22.5.26.8-3.93 1.43-9.37 2.78-13.18a41.61 41.61 0 012.4-4.65 30.84 30.84 0 012.37-4.87c1-1.38 2.61-1.73 3.94-2.77a6.77 6.77 0 002.33-3.11c.59-1.77.22-3.65.28-5.48a9.64 9.64 0 00-1.26-4.84 22.83 22.83 0 00-4.09-5.26A17.65 17.65 0 00195 201a11.34 11.34 0 00-9.06-.82q3.71-.07 7.41 0" transform="translate(-15.48 -70.58)" fill="#eb6fbd"/><path class="cls-4" d="M152.64 219.66a29.85 29.85 0 016.42 2.67c1.61 1 2.91 2.51 2.33 4s-3.32 2.42-5.67 2.23a18.39 18.39 0 01-6.38-2.05c-4.81-2.28-12.5-5.72-15.14-9.32-.64-.86-2.36-1.45-3.56-2a10.71 10.71 0 00-2.71-.26c-6.58-.62-4.43-.26-11.06-.56-.46 0 1.8-.41 1.95-.71 1.75-.4 1.59-.7 3.45-.76a99.06 99.06 0 0111.3.07 15.29 15.29 0 015 .82 14.86 14.86 0 012.74 1.93 13.49 13.49 0 003.19 1.28zm50.55 0a28.88 28.88 0 00-6.28 2.67c-1.57 1-2.84 2.51-2.28 4a2.44 2.44 0 00.47.74 2.09 2.09 0 00.22.2 6.89 6.89 0 004.86 1.29 17.79 17.79 0 006.24-2.05c4.69-2.28 12.22-5.72 14.8-9.32.62-.86 2.31-1.45 3.48-2a10.28 10.28 0 012.65-.26c6.43-.62 4.33-.26 10.81-.56.45 0-1.76-.41-1.9-.71-1.72-.4-1.56-.7-3.37-.76a94.73 94.73 0 00-11 .07 14.63 14.63 0 00-4.84.82 14.36 14.36 0 00-2.68 1.93 13.1 13.1 0 01-3.17 1.25z" transform="translate(-15.48 -70.58)"/><path d="M166.85 186.9c.84 2.07 1.81 4.3 3.76 5.39 1.66.93 3.69.83 5.59.71a6.87 6.87 0 001.75-.27 4.66 4.66 0 001.94-1.37c2-2.22 2.22-5.4 2.4-8.35l.24-4a13.67 13.67 0 000-3 14.11 14.11 0 00-.55-2.1l-1-3.24a3 3 0 00-.77-1.42c-.77-.66-1.94-.37-2.94-.17s-2.32.06-2.63-.92c-.09-.29-.2-.72-.5-.67-.15 0-.18.24-.31.32-.61 1.16-1.22 3.23-2.52 5.5-1.9 3.3-5.84 4.94-7.14 6.32-.6.11 1 2.92 1.26 3.52z" transform="translate(-15.48 -70.58)" stroke="#fcd9ac" stroke-miterlimit="10" fill="#fcd9ac"/><path class="cls-4" d="M171.35 196.38a3 3 0 01-.28 1.89c-.27.4-.73.65-1 1a2.82 2.82 0 00-.32 1.7c.11 2.34.83 4.9 2.85 6.08a8 8 0 003.65.85 11 11 0 004-.27c2.22-.7 3.84-2.62 5.14-4.55a3.84 3.84 0 00.91-2.7 1.14 1.14 0 00-.26-.58 1.83 1.83 0 00-.86-.35 6.26 6.26 0 01-3.81-3.29 18.32 18.32 0 01-1.52-4.93 20.12 20.12 0 00-4.78-.05c-1.11.17-3.06.61-3.68 1.68-.55.95-.11 2.56-.04 3.52z" transform="translate(-15.48 -70.58)"/><path d="M184.29 176.65a1.46 1.46 0 011.08.9c.23.64 0 1.39.31 2a2.29 2.29 0 01.33.64 1.25 1.25 0 01-.31.88l-1.52 2.19a3.24 3.24 0 01-1.51 1.4 31.35 31.35 0 01.26-5c.4-.94-.34-3.32 1.36-3.01zm-21.59 4.83a.83.83 0 00-.17.6.86.86 0 00.32.45c1.13 1.06 1.93 2.52 3.1 3.3a23.55 23.55 0 00-1-2.8 18.59 18.59 0 01-1.13-2.74 3 3 0 00-1.12 1.19zm17.41 10.22c-1.1 3.52-6.46 4.13-8.87 1.46 1.21 1.2 7.43 1.21 8.87-1.46zm-45.91 25.45c10.62 5.31 20.08 11.41 27.05 9.54-1 1.6-3 2.14-5.49 2.15-6.13-.72-17.26-6.9-21.56-11.69zm61.12 10.08c6.89 5 22.47-5.49 26.18-10.38-5.5 5.44-15.5 8.15-26.18 10.38z" transform="translate(-15.48 -70.58)" fill="#f2c09e"/></g><path class="cls-2" d="M94.42 151.3l6.61-.62a7.31 7.31 0 011.14 3.37 3.14 3.14 0 01-.45 2.33 3.76 3.76 0 01-2.54.9l-26.64 2.48a9.76 9.76 0 01-1.16-3.59 2.32 2.32 0 012.43-2.95l7-.65q-.3-5.64-.61-9l-28.63 2.67a8.66 8.66 0 01-1.74-4.48 9.48 9.48 0 01.63-4.25q.82-2.22 11.4-21.78t11.41-20.3a6.57 6.57 0 013.49-1l6.7-.62a7 7 0 014.15.57q1.38.84 1.75 4.78l3.3 35.41 5.93-.56a14.13 14.13 0 011.19 4.39 4.29 4.29 0 01-.38 2.6 3 3 0 01-2.4 1l-3.67.35c.51 4.21.86 7.19 1.09 8.95zm-15-15.47q-2.62-28.07-3-28t-12.65 29.46zm125.04-7.72l6.62-.62a7.34 7.34 0 011.13 3.36 3.22 3.22 0 01-.44 2.34 3.84 3.84 0 01-2.55.89l-26.63 2.49a9.56 9.56 0 01-1.16-3.6 2.3 2.3 0 012.42-2.94l7-.65c-.2-3.76-.41-6.76-.61-9l-28.63 2.67a8.69 8.69 0 01-1.75-4.48 9.64 9.64 0 01.64-4.25q.81-2.2 11.4-21.78t11.4-20.3a6.63 6.63 0 013.5-1l6.7-.63a6.87 6.87 0 014.14.58c.92.55 1.51 2.15 1.75 4.78l3.3 35.4 5.94-.55a14.34 14.34 0 011.19 4.39 4.17 4.17 0 01-.36 2.58 3 3 0 01-2.37 1l-3.67.34c.46 4.23.82 7.22 1.04 8.98zm-15-15.48q-2.61-28.06-3-28t-12.67 29.48z" transform="translate(-15.48 -70.58)" id="Layer_6" data-name="Layer 6"/><path class="cls-2" d="M131.62 143.11q-10.22 1.54-16.66-2.81t-8.68-19.13q-2.53-16.76 2.93-25.61t18.27-10.8q10.21-1.53 16.66 2.82t8.73 19.42q2.48 16.45-3 25.32t-18.25 10.79zM126 93.05a7.73 7.73 0 00-6.19 4.88q-1.87 4.23-.17 15.6 2.13 14.07 5.39 18.05a8.4 8.4 0 008.19 3.24 7.59 7.59 0 006.34-4.9q1.69-4.2 0-15.33-2.1-13.91-5.45-18.08T126 93.05z" transform="translate(-15.48 -70.58)" id="Layer_7" data-name="Layer 7"/><g id="Layer_8" data-name="Layer 8"><text transform="translate(.25 115.49)" font-size="25" font-family="Montserrat-Medium,Montserrat" font-weight="500" fill="#262626">Oops...</text><text transform="translate(10.22 131.73)" font-size="10" font-family="Montserrat-SemiBold,Montserrat" font-weight="600" fill="#262626">t<tspan class="cls-9" x="4.24" y="0">h</tspan><tspan x="11.14" y="0">e </tspan><tspan x="20.12" y="0" letter-spacing="-.01em">p</tspan><tspan class="cls-9" x="26.91" y="0">a</tspan><tspan x="33.03" y="0">ge </tspan><tspan class="cls-9" x="48.95" y="0">n</tspan><tspan x="55.85" y="0">ot </tspan><tspan x="69.3" y="0" letter-spacing="-.01em">f</tspan><tspan x="72.91" y="0">ou</tspan><tspan class="cls-9" x="86.17" y="0">n</tspan><tspan x="93.07" y="0">d</tspan></text><path class="cls-2" d="M203.32 139a2.49 2.49 0 013.19 2.55 1.55 1.55 0 01-.18 1.08 1.82 1.82 0 01-1.24.45l-2.71.29a2.52 2.52 0 00.59 1.45 1.71 1.71 0 001.49.39 4.36 4.36 0 002-.8 1.1 1.1 0 01.46.76c0 .39-.21.69-.77.9a7.83 7.83 0 01-2 .45 4.27 4.27 0 01-3-.5 3.39 3.39 0 01-1.18-2.55 4.25 4.25 0 01.69-3.1 3.56 3.56 0 012.66-1.37zm-.16 1.29a.92.92 0 00-.77.52 3 3 0 00-.13 1.56h.38q.81-.09 1.23-.18c.28-.06.45-.14.49-.22a.7.7 0 000-.38 1.64 1.64 0 00-.39-1 .94.94 0 00-.81-.3zm4.21-1.15a.33.33 0 01.16-.36 17.08 17.08 0 012.39-.4 4.12 4.12 0 01.09.84 6.78 6.78 0 011.58-.91 5.76 5.76 0 011.29-.32.73.73 0 01.36 0 .39.39 0 01.12.28 3.07 3.07 0 010 .85 1 1 0 01-.24.58 1.35 1.35 0 01-.55.25 1.25 1.25 0 01-.44.07 2.49 2.49 0 01-.47-.44 1 1 0 00-.78.48 4.18 4.18 0 00-.07 2q.15 1.48.3 2.55l1.15-.12a1.25 1.25 0 01.19.52.54.54 0 01-.07.37.65.65 0 01-.4.15l-3.72.39a1.43 1.43 0 01-.19-.56.41.41 0 01.07-.33.44.44 0 01.32-.14l.53-.05c-.05-.72-.13-1.55-.23-2.49a8.37 8.37 0 00-.45-2.39.71.71 0 00-.71-.3 1.45 1.45 0 01-.23-.52zm6.78-.72a.35.35 0 01.16-.37 19.06 19.06 0 012.39-.4 4.23 4.23 0 01.09.85 6.44 6.44 0 011.58-.91 5.56 5.56 0 011.29-.33.6.6 0 01.36 0c.06 0 .1.13.12.28a3 3 0 010 .84 1 1 0 01-.24.59 1.23 1.23 0 01-.55.24 1.14 1.14 0 01-.44.08 2.49 2.49 0 01-.47-.44.94.94 0 00-.78.47 4.08 4.08 0 00-.07 2q.15 1.49.3 2.55l1.15-.13a1.21 1.21 0 01.19.53.56.56 0 01-.07.37.66.66 0 01-.4.14l-3.72.4a1.43 1.43 0 01-.19-.56.45.45 0 01.07-.34.5.5 0 01.32-.13l.53-.06c-.05-.71-.13-1.54-.23-2.48a8.37 8.37 0 00-.45-2.39.68.68 0 00-.71-.3 1.45 1.45 0 01-.23-.5zm10.85 5.92a3.34 3.34 0 01-2.55-.59 3.47 3.47 0 01-1.09-2.38 4.55 4.55 0 01.67-3.24 3.63 3.63 0 012.7-1.41 3.25 3.25 0 012.54.59 3.41 3.41 0 011.09 2.38 4.61 4.61 0 01-.66 3.24 3.63 3.63 0 01-2.7 1.41zm.21-1.3a1 1 0 00.83-.56 3.89 3.89 0 00.09-1.86 5 5 0 00-.54-2.08 1.05 1.05 0 00-1.07-.52 1 1 0 00-.83.56 3.84 3.84 0 00-.09 1.85 5.12 5.12 0 00.54 2.08 1.06 1.06 0 001.03.49zm3.79-6.21a.35.35 0 01.16-.36 17.08 17.08 0 012.39-.4 4.12 4.12 0 01.09.84 6.41 6.41 0 011.59-.9 5.32 5.32 0 011.29-.33.7.7 0 01.35 0 .39.39 0 01.12.28 3.07 3.07 0 010 .85 1.05 1.05 0 01-.24.59 1.51 1.51 0 01-.55.24 1.25 1.25 0 01-.44.07 2.63 2.63 0 01-.46-.44 1 1 0 00-.79.48 4.21 4.21 0 00-.07 2c.1 1 .21 1.83.31 2.54l1.14-.12a1.12 1.12 0 01.19.52.49.49 0 01-.07.37.58.58 0 01-.4.15l-3.71.39a1.46 1.46 0 01-.2-.56.38.38 0 01.39-.47h.53c-.05-.72-.13-1.55-.23-2.49a7.67 7.67 0 00-.45-2.39.7.7 0 00-.71-.3 1.35 1.35 0 01-.23-.56z" transform="translate(-15.48 -70.58)"/></g></svg>