<svg data-name="Layer 3" xmlns="http://www.w3.org/2000/svg" viewBox="0 0 222.56 222.56"><path d="M189.28 13a20.32 20.32 0 0120.3 20.29v156a20.32 20.32 0 01-20.3 20.26h-156a20.32 20.32 0 01-20.3-20.29v-156A20.32 20.32 0 0133.28 13h156m0-13h-156A33.3 33.3 0 00-.02 33.29v156a33.29 33.29 0 0033.3 33.26h156a33.29 33.29 0 0033.3-33.29v-156A33.3 33.3 0 00189.28 0z" fill="#eb6fbd"/><path d="M96.28 215.44v-65.76H68.13v-41.44h28.15c-6.41-66.5 30.41-68.72 80.2-65.76v39.16l-38.77.38v26.22l38.77.76-8.36 39.54-31.95-.4.38 67.28" fill="none" stroke="#eb6fbd" stroke-miterlimit="10" stroke-width="13"/></svg>