<svg xmlns="http://www.w3.org/2000/svg" viewBox="0 0 139.09 383.42"><defs><style>.cls-1,.cls-7{stroke-miterlimit:10}.cls-1{fill:#eb6fbd;stroke:#eb6fbd}.cls-7{stroke:#000}.cls-6{fill:#f7d6b2}.cls-7{stroke-width:1.01px}</style></defs><g id="coat"><path class="cls-1" d="M119.5 207.26h27l50.2 126.58c-36.59 5.8-70.78 7.18-100.35 0z" transform="translate(-58.3 -35.81)"/><path class="cls-1" d="M151.45 206.46l35.31 81.38c-2.18 3.19-4.89 3.09-7.95.77L145.75 207zm-31.9-.2l-58 71.45c1.22 3.67 3.85 4.32 7.43 2.93l56.57-69z" transform="translate(-58.3 -35.81)"/><path stroke-width="2" stroke="#000" stroke-miterlimit="10" d="M69.04 171.92l-4.97 130.23"/><path d="M44.1 265.67c23.11 2.37 51.1 1.82 81.21 0" stroke-width="1.56" stroke="#000" stroke-miterlimit="10"/><path d="M134.33 266.13a1.5 1.5 0 000-3 1.5 1.5 0 000 3zm0 11.4a1.5 1.5 0 000-3 1.5 1.5 0 000 3zm0 11.4a1.5 1.5 0 000-3 1.5 1.5 0 000 3z" transform="translate(-58.3 -35.81)" fill="#fff"/></g><g id="skin"><path d="M61.07 277.82c-1.59 1.57-2.23 4-2.26 6.89 4.22.58 7.06-1.08 9.46-3.44zm118.38 12.48l7.31-1.44c1.45 1.44 1.93 6.38 0 7.29-4.36-.95-7.56-2.5-7.31-5.85z" transform="translate(-58.3 -35.81)" stroke="#f7d6b2" fill="#f7d6b2" stroke-miterlimit="10"/><path class="cls-6" d="M91.73 178.54c1 8.79 7.25 16.37 14.92 20.8s16.61 6.07 25.44 6.71c9.22.67 19.1.14 26.73-5.08s11.54-13.82 15.24-22.11" transform="translate(-58.3 -35.81)"/><path class="cls-6" d="M90.23 178.54a28.77 28.77 0 009.51 17.6c5.61 5.09 12.74 8.1 20.08 9.72a78.5 78.5 0 0023 1.74c7.28-.59 14.35-2.78 19.86-7.74 6-5.42 9.47-13 12.71-20.24.78-1.75-1.81-3.28-2.59-1.52-2.68 6-5.43 12.18-9.79 17.14a28 28 0 01-17.33 9 69.32 69.32 0 01-21.32-.61c-7.07-1.15-14.11-3.34-20-7.6-5.68-4.14-10.25-10.42-11.14-17.53-.23-1.89-3.24-1.91-3 0z" transform="translate(-58.3 -35.81)"/><path d="M116.08 183.45a1.5 1.5 0 000-3 1.5 1.5 0 000 3zm34.78 1.14a1.5 1.5 0 000-3 1.5 1.5 0 000 3z" transform="translate(-58.3 -35.81)"/></g><g id="hat"><path d="M91.79 177l9.95-79.67c2-16.16 4.37-33.17 14.35-46s30.33-19.17 42.83-8.74c3.68 3.07 6.3 7.22 8.52 11.46 9.75 18.63 12.86 40.15 12.22 61.17s-1.39 42.77-5.6 63.36c-25.77.86-56.5-2.41-82.27-1.55" transform="translate(-58.3 -35.81)"/><path d="M93.29 177l8.71-69.79c1.27-10.13 2.26-20.37 4.54-30.34 2.08-9.14 5.4-18.47 11.56-25.7 9.77-11.46 29.78-18 41.61-5.84 3.54 3.64 6 8.27 8.11 12.81a98.22 98.22 0 015.47 14.53 128.5 128.5 0 014.83 30.93c.43 10.85-.2 21.78-.75 32.61A312.86 312.86 0 01174.1 170c-.44 2.74-.93 5.47-1.49 8.19l1.45-1.11c-21.55.7-43.08-1.17-64.61-1.61-5.88-.12-11.77-.13-17.66.06-1.92.06-1.93 3.06 0 3 21.55-.7 43.08 1.17 64.61 1.61 5.89.12 11.78.13 17.66-.06a1.53 1.53 0 001.45-1.1 262.37 262.37 0 004.37-34.57c.78-11.47 1.37-23 1.36-34.53a141.5 141.5 0 00-3.53-32.18A107.41 107.41 0 00173 62.47a77.94 77.94 0 00-7.21-14.34 27.61 27.61 0 00-9.89-9.44 26 26 0 00-11.43-2.87c-8.27-.2-16.5 3-23 8.06-15.66 12.14-18.74 33.86-21 52.21q-4.53 36-9 72L90.29 177c-.23 1.91 2.77 1.89 3 0z" transform="translate(-58.3 -35.81)"/><path d="M91.34 178c1.63 2.77 3 5.69 4.78 8.39a22.55 22.55 0 006.1 6.4c5.55 3.9 12.32 6 18.88 7.5 12.75 2.83 26.89 2.15 37.56-6.14a28.73 28.73 0 0010.46-15.43c.14-.56-.73-.8-.87-.24-2.85 11.21-13.07 19-24 21.42a51.35 51.35 0 01-20.88-.06c-6.39-1.23-13-3.13-18.57-6.46a22.87 22.87 0 01-7.69-7.11c-1.85-2.8-3.29-5.84-5-8.73a.45.45 0 00-.78.46z" transform="translate(-58.3 -35.81)"/></g><g id="shoes"><path class="cls-7" d="M127.34 339.32v75.44q3.85 5.3 7.7 3.53v-78.76zm26.52 0v75.44q-3.86 5.3-7.7 3.53v-78.76z" transform="translate(-58.3 -35.81)"/><path class="cls-7" d="M150 418.73h23.58c.82-10.47-5.9-12.36-22.24-3.34zm-16.83 0h-23.58c-.82-10.47 5.9-12.36 22.24-3.34z" transform="translate(-58.3 -35.81)"/><path d="M95.55 302.91v74.15m-27.32-74.91v74.15" stroke-miterlimit="10" fill="#eb6fbd" stroke="#eb6fbd"/></g></svg>